<svg id="icici-bank-vector-logo" xmlns="http://www.w3.org/2000/svg" width="30.106" height="32.569" viewBox="0 0 30.106 32.569">
  <path id="Path_1480" data-name="Path 1480" d="M29.931,269.654c7.461-7.407,16.492-9.305,20.1-4.276s.441,15.225-7.02,22.6-16.492,9.305-20.1,4.276-.441-15.2,7.02-22.6" transform="translate(-21.421 -262.568)" fill="#f99d28" fill-rule="evenodd"/>
  <path id="Path_1481" data-name="Path 1481" d="M44.328,265.882A27.58,27.58,0,0,0,41.85,268c-6.553,6.443-9.251,15.307-6.025,19.74,3.331,4.433,11.371,2.808,18.006-3.716a25.335,25.335,0,0,0,7-11.315,10.623,10.623,0,0,0-1.349-7.1c-2.863-3.938-9-3.634-15.144.276" transform="translate(-30.858 -262.733)" fill="#af2a30" fill-rule="evenodd"/>
  <path id="Path_1482" data-name="Path 1482" d="M55.727,298.261a14.226,14.226,0,0,1-10.627,3.4c1.487.084,2.67-1.568,3.662-3.772a36.4,36.4,0,0,0,2.064-6.3,11.519,11.519,0,0,0,.389-5.782c-.606-.8-1.955-.583-3.5.3-.742.412-1.706.138-.55-1.267a28.248,28.248,0,0,1,7.488-5.341c1.844-.523,3.938.194,3.22,2.2-.5,1.432-6.938,18.337-2.138,16.574M61,272.086c.88.88.33,2.781-1.129,4.276s-3.442,2.01-4.3,1.156c-.908-.853-.358-2.781,1.129-4.3s3.469-1.982,4.3-1.129" transform="translate(-38.57 -269.15)" fill="#fff" fill-rule="evenodd"/>
</svg>
