<svg id="kotak-mahindra-logo" xmlns="http://www.w3.org/2000/svg" width="33.537" height="28.853" viewBox="0 0 33.537 28.853">
  <path id="Path_1" data-name="Path 1" d="M290.769,417.853c-9.237,0-16.769-6.48-16.769-14.425S281.532,389,290.769,389s16.769,6.48,16.769,14.428S300.005,417.853,290.769,417.853Z" transform="translate(-274 -389)" fill="#0b2775" fill-rule="evenodd"/>
  <path id="Path_2" data-name="Path 2" d="M294.112,398.032l1.872.081c-1.112,7.771-8.487,8.339-12.2.815l.487-.815C288.12,400.555,292.621,401.475,294.112,398.032Z" transform="translate(-266.578 -382.144)" fill="#fff" fill-rule="evenodd"/>
  <path id="Path_3" data-name="Path 3" d="M282.505,392.131l3.742-1.22.162,21.153-4.067,1.383.162-21.315Z" transform="translate(-267.668 -387.55)" fill="red" fill-rule="evenodd"/>
  <path id="Path_4" data-name="Path 4" d="M299.731,399.046h1.708c-.658-3.558-2.465-5.8-5.94-6.1q-4.354.084-7.4,5.043c-1.345,2.033-3.49,5.24-6.1,5.617-3.147.456-4.976-2.315-3.614-4.707.827-1.451,3.057-2.058,4.617-1.912h.027a9.069,9.069,0,0,1,3.875,1.2l.025-3a10.6,10.6,0,0,0-2.119-1.621,5.156,5.156,0,0,0-3.295-.549c-4.747,1.043-5.615,4.92-4.719,10.086,1.844,5.993,7.591,6.454,10.9,2.6,2.264-2.711,7.893-11.868,12.042-6.671Z" transform="translate(-272.12 -386.007)" fill="#fff" fill-rule="evenodd"/>
</svg>
