<svg xmlns="http://www.w3.org/2000/svg" xmlns:xlink="http://www.w3.org/1999/xlink" viewBox="0 0 58.33 66.96"><defs><style>.cls-1,.cls-15,.cls-16{fill:none;}.cls-2{fill:#c33636;}.cls-3{clip-path:url(#clip-path);}.cls-4{fill:#fde1d5;}.cls-5{fill:#5a5b5d;}.cls-17,.cls-6{fill:#4084c0;}.cls-7{fill:#59a1d7;}.cls-8{fill:#ecb9ae;}.cls-9{fill:#ec8585;}.cls-10{fill:#404143;}.cls-11{fill:#ecb8ae;}.cls-12{fill:#e7b644;}.cls-13{fill:#b5b4b4;}.cls-14{clip-path:url(#clip-path-2);}.cls-15,.cls-16,.cls-17{stroke:#000;stroke-miterlimit:10;}.cls-15{stroke-linecap:round;}.cls-17{stroke-width:3px;}.cls-18{fill:#1f2225;}.cls-19{fill:#474656;}.cls-20{fill:#e3e3e3;}</style><clipPath id="clip-path" transform="translate(0 -2.94)"><polygon class="cls-1" points="8.1 29.48 18.57 34.5 24.45 36.5 36.54 31.89 47 16.04 41.2 1.94 24.58 0.82 2.94 0 3.68 16.38 8.1 29.48"/></clipPath><clipPath id="clip-path-2" transform="translate(0 -2.94)"><polygon class="cls-1" points="8.6 30.48 19.07 35.5 24.11 34.84 28.63 34.82 47.5 17.04 41.7 2.94 25.08 1.82 3.44 1 4.18 17.38 8.6 30.48"/></clipPath></defs><g id="Layer_2" data-name="Layer 2"><g id="Layer_1-2" data-name="Layer 1"><path class="cls-2" d="M24.31,38c.91.74,1.82,1.47,2.72,2.22a4,4,0,0,1,.41.5l-2.37,3.13h-2c-.79-1.05-1.59-2.09-2.38-3.13,0-.08,0-.18.08-.22L24.07,38l.11,0Z" transform="translate(0 -2.94)"/><g class="cls-3"><path class="cls-4" d="M33.06,23.9a10.1,10.1,0,0,1-.65,4.45,8.88,8.88,0,0,1-3.35,4c-.16.1-.32.2-.48.28a7.34,7.34,0,0,1-3.64,1.1,7,7,0,0,1-3.54-1.22,8.63,8.63,0,0,1-4.3-7.4c-.09-2.74,0-5.48,0-8.22l.74,0c1.6,0,3.2,0,4.79,0a6.53,6.53,0,0,0,4.07-1.51L28.28,14c1.2.71,2.53,1.57,3.91,2.32a1.35,1.35,0,0,1,.88,1.55Z" transform="translate(0 -2.94)"/><path class="cls-5" d="M33.07,17.9a1.35,1.35,0,0,0-.88-1.55c-1.38-.75-2.71-1.61-3.91-2.32l-1.59,1.36a6.53,6.53,0,0,1-4.07,1.51c-1.59,0-3.19,0-4.79,0a4.3,4.3,0,0,0-.47-.63,9.43,9.43,0,0,1-2.51-3.57,8.36,8.36,0,0,1,0-6.92c.05-.09,0-.24,0-.36a5.87,5.87,0,0,1,3.92-1.48c3,0,6,.07,9,0a4.14,4.14,0,0,1,4.32,4A4.05,4.05,0,0,1,35,9.14a3.79,3.79,0,0,1,1.09,2.69c0,2.27,0,4.54,0,6.8A4.1,4.1,0,0,0,33.07,17.9Z" transform="translate(0 -2.94)"/><path class="cls-6" d="M21.09,59.85h-8V47.93h-2V59.85h-2c0-.47.1-1,.13-1.42.09-1.74.16-3.47.25-5.21,0-.7.08-1.4.13-2.1.16-2.33.39-4.66.47-7a6.67,6.67,0,0,1,1.28-4,5.65,5.65,0,0,1,4-2.38c.22.22.46.42.67.65q1.36,1.51,2.7,3.06c.27.3.48.36.82.06a9.08,9.08,0,0,1,1.17-.77c.79,1,1.59,2.08,2.38,3.13-.21,1.72-.42,3.45-.64,5.18s-.48,3.61-.71,5.42S21.3,58.06,21.09,59.85Z" transform="translate(0 -2.94)"/><path class="cls-6" d="M35.06,59.85h-8c-.29-2.45-.58-4.9-.89-7.34-.35-2.88-.73-5.76-1.09-8.63l2.37-3.13a14.33,14.33,0,0,1,1.22.81c.3.25.49.21.73-.06.42-.48.86-.94,1.28-1.42C31.6,39,32.51,38,33.42,36.89c1.45.34,2.92.59,4.33,1A6.19,6.19,0,0,1,42.05,44l-3-.12v-2h-6v14h2Z" transform="translate(0 -2.94)"/><path class="cls-7" d="M15.34,37.75a5.65,5.65,0,0,0-4,2.38,6.67,6.67,0,0,0-1.28,4c-.08,2.33-.31,4.66-.47,7,0,.7-.09,1.4-.13,2.1-.09,1.74-.16,3.47-.25,5.21,0,.47-.09,1-.13,1.42h-4c0-1,.07-2,.13-2.9s.16-1.72.22-2.59c.14-2.4.25-4.8.39-7.19a40,40,0,0,1,.38-4.39,6,6,0,0,1,4.68-5c1.25-.35,2.53-.59,3.8-.88Z" transform="translate(0 -2.94)"/><path class="cls-8" d="M17.09,16.93c0,2.74-.08,5.48,0,8.22a8.63,8.63,0,0,0,4.3,7.4,7,7,0,0,0,3.54,1.22,7.34,7.34,0,0,0,3.64-1.1c.16-.08.32-.18.48-.28,0,.37,0,.74,0,1.11a1.9,1.9,0,0,0-.4.14A8.43,8.43,0,0,1,24,34.87c-.94,0-1.88-.23-2.85-.36a3,3,0,0,1,0,.49c-.15.72.22,1,.85,1.25,1,.37,2,.83,3,1.25l-.75.39s0,0,0,.08l-.11,0a2,2,0,0,0-.31-.19l-4.69-1.88c0-1,0-2,0-3a1,1,0,0,0-.32-.73,9.05,9.05,0,0,1-3.66-7.68c0-.16,0-.32,0-.57H14.3a2.92,2.92,0,0,1-2.92-1.74A2.8,2.8,0,0,1,12,18.78a.83.83,0,0,0,.11-.15,4.07,4.07,0,0,1,2.94-.73l.07-1Z" transform="translate(0 -2.94)"/><path class="cls-9" d="M25.07,43.88c.36,2.87.74,5.75,1.09,8.63.31,2.44.6,4.89.89,7.34h-6q.32-2.68.64-5.37c.23-1.81.48-3.61.71-5.42s.43-3.46.64-5.18Z" transform="translate(0 -2.94)"/><path class="cls-10" d="M17.09,16.93h-2l-.07,1a4.07,4.07,0,0,0-2.94.73c0-2.72-.08-5.45,0-8.17a6.38,6.38,0,0,1,2.69-5c0,.12.06.27,0,.36a8.36,8.36,0,0,0,0,6.92,9.43,9.43,0,0,0,2.51,3.57,4.3,4.3,0,0,1,.47.63Z" transform="translate(0 -2.94)"/><path class="cls-7" d="M39.07,53.87a9,9,0,0,1,3.72.72c.08,1.54.16,3.09.26,4.63,0,.46-.08.66-.6.65-1.81,0-3.61,0-5.41,0,0-1.32,0-2.65,0-4h2Z" transform="translate(0 -2.94)"/><path class="cls-7" d="M19.07,35.88l4.69,1.88a2,2,0,0,1,.31.19l-3.29,2.58c-.05,0-.05.14-.08.22a9.08,9.08,0,0,0-1.17.77c-.34.3-.55.24-.82-.06Q17.38,39.92,16,38.4c-.21-.23-.45-.43-.67-.65l-.62-.85Z" transform="translate(0 -2.94)"/><path class="cls-7" d="M24.2,37.89,25,37.5l4.12-1.62,4.35,1C32.51,38,31.6,39,30.67,40.08c-.42.48-.86.94-1.28,1.42-.24.27-.43.31-.73.06a14.33,14.33,0,0,0-1.22-.81,4,4,0,0,0-.41-.5c-.9-.75-1.81-1.48-2.72-2.22Z" transform="translate(0 -2.94)"/><path class="cls-11" d="M33.07,17.9a4.1,4.1,0,0,1,3,.73,3,3,0,0,1-2,5.27h-.93Z" transform="translate(0 -2.94)"/><path class="cls-4" d="M29.07,35.88,25,37.5c-1-.42-2-.88-3-1.25-.63-.23-1-.53-.85-1.25a3,3,0,0,0,0-.49c1,.13,1.91.33,2.85.36a8.43,8.43,0,0,0,4.68-1.23,1.9,1.9,0,0,1,.4-.14Z" transform="translate(0 -2.94)"/><path class="cls-12" d="M45.66,27.59l-.18.18Z" transform="translate(0 -2.94)"/><path class="cls-12" d="M58.15,40.44l.18-.18Z" transform="translate(0 -2.94)"/><path class="cls-2" d="M24.31,38c.91.74,1.82,1.47,2.72,2.22a4,4,0,0,1,.41.5l-2.37,3.13h-2c-.79-1.05-1.59-2.09-2.38-3.13,0-.08,0-.18.08-.22L24.07,38l.11,0Z" transform="translate(0 -2.94)"/><path class="cls-13" d="M24.31,38,24.18,38s0-.06,0-.08Z" transform="translate(0 -2.94)"/><path class="cls-6" d="M35.57,60.09c.7,0,1.32-1.1,2-1.1v.86h2c-.05-.47-.1-1-.13-1.42-.09-1.74-.17-3.47-.26-5.21,0-.7-.08-1.4-.12-2.1-.17-2.33-.39-4.66-.48-7a6.61,6.61,0,0,0-1.28-4,5.61,5.61,0,0,0-4-2.38c-.23.22-.47.42-.67.65-.91,1-1.81,2-2.71,3.06-.26.3-.47.36-.82.06a7.88,7.88,0,0,0-1.17-.77l-2.37,3.13c.21,1.72.42,3.45.64,5.18s.48,3.61.7,5.42.43,3.58.65,5.37h8" transform="translate(0 -2.94)"/><path class="cls-7" d="M33.31,37.75a5.61,5.61,0,0,1,4,2.38,6.61,6.61,0,0,1,1.28,4c.09,2.33.31,4.66.48,7,0,.7.09,1.4.12,2.1.09,1.74.17,3.47.26,5.21,0,.47.08,1,.13,1.42h4c0-1-.07-2-.13-2.9s-.17-1.72-.22-2.59c-.14-2.4-.25-4.8-.4-7.19a40,40,0,0,0-.37-4.39,6,6,0,0,0-4.68-5c-1.25-.35-2.54-.59-3.81-.88Z" transform="translate(0 -2.94)"/></g><g class="cls-14"><path d="M43.86,56c.06,1,.11,1.86.16,2.76,0,.33.06.67.06,1a1,1,0,0,1-1,1.11H5.61c-1.17,0-1.49-.34-1.42-1.5.33-5.35.65-10.7,1-16.05a7.24,7.24,0,0,1,5.7-6.53l7.25-1.67c0-.69,0-1.35,0-2a.52.52,0,0,0-.19-.36,10,10,0,0,1-3.8-7.67,13.12,13.12,0,0,1-2-.69,3.93,3.93,0,0,1-1.32-5.7,1.73,1.73,0,0,0,.27-.91c0-2.25,0-4.49,0-6.74A8,8,0,0,1,19.23,3q4.36,0,8.74,0a5,5,0,0,1,5,3.67.91.91,0,0,0,.51.49,5,5,0,0,1,3.64,5c0,1.91,0,3.83,0,5.74a1.15,1.15,0,0,0,.17.69,4,4,0,0,1-3.09,6.44c-.12.79-.19,1.6-.38,2.37a9.59,9.59,0,0,1-3.2,5.16,1.17,1.17,0,0,0-.5,1.1c0,.5,0,1,0,1.53,2.28.52,4.52,1,6.76,1.55A7.26,7.26,0,0,1,43,42.8m-22.46-.73c-.15.11-.25.17-.34.25-1,.79-1.31.77-2.17-.21-1.11-1.24-2.22-2.48-3.31-3.73a.67.67,0,0,0-.8-.27c-.89.25-1.82.42-2.72.64a5.3,5.3,0,0,0-4,5C7,47.49,6.7,51.23,6.47,55c-.08,1.27-.15,2.55-.23,3.85h4.93V47.91h2v10.9h7.08c.11-.87.23-1.71.33-2.56.48-3.89,1-7.79,1.44-11.68a1.08,1.08,0,0,0-.14-.69C21.47,43.28,21,42.71,20.53,42.07ZM16.15,17.92c0,1.24,0,2.4,0,3.56a41.38,41.38,0,0,0,.14,4.73,7.91,7.91,0,0,0,7.82,6.68A7.8,7.8,0,0,0,32,26.18c.27-2.8.12-5.64.15-8.47a.51.51,0,0,0-.2-.34l-3.54-2.13a8.37,8.37,0,0,1-7.16,2.69C19.55,17.86,17.89,17.92,16.15,17.92Zm18.9-.9a.31.31,0,0,0,.05-.12c0-1.6,0-3.2,0-4.8a3,3,0,0,0-2.92-3.16,1,1,0,0,1-1.07-1A3,3,0,0,0,27.91,5H19.37a6,6,0,0,0-6.22,6.19V16.5c0,.17,0,.35,0,.54l.9-.15c.34-.84.53-1,1.44-1h6.86a5.69,5.69,0,0,0,4.78-2.37c.54-.71.93-.79,1.69-.34l4.54,2.72c.19.12.45.25.5.43C34.08,17,34.56,17,35.05,17ZM41,42.93a5.07,5.07,0,0,0-3.81-4.16c-.9-.23-1.82-.4-2.72-.65a.76.76,0,0,0-.9.3c-1.12,1.29-2.26,2.55-3.39,3.83-.69.78-1.1.82-1.9.18l-.5-.36c-.42.55-.77,1.07-1.17,1.54a1.35,1.35,0,0,0-.32,1.14c.46,3.52.89,7,1.33,10.57.15,1.17.29,2.33.44,3.49H41.7M24.25,44.88H24L22.27,58.79H26Zm3.83-10.6a27.09,27.09,0,0,1-4,.56,26.53,26.53,0,0,1-3.94-.57c-.08.91-.08.91.83,1.27s1.72.74,2.6,1a1.91,1.91,0,0,0,1.11,0c.88-.3,1.74-.68,2.6-1S28.23,35.17,28.08,34.28Zm-2,3.89L29,40.5l2.67-3c-.63-.15-1.17-.29-1.71-.4A2,2,0,0,0,29,37C28,37.36,27.11,37.77,26.1,38.17Zm-4,0c-1.78-.84-3.48-1.76-5.45-.59l2.58,2.89Zm-.05,2.6a13.65,13.65,0,0,0,1.44,1.84,1.22,1.22,0,0,0,1.18.06,14.15,14.15,0,0,0,1.48-1.9c-.62-.5-1.18-1-1.76-1.39a.64.64,0,0,0-.57,0C23.27,39.82,22.72,40.29,22.08,40.8ZM14.13,18.94a2,2,0,0,0-2,2.17,1.88,1.88,0,0,0,2,1.72Zm20,3.95a2,2,0,0,0,2-2.17,1.87,1.87,0,0,0-2-1.72Z" transform="translate(0 -2.94)"/></g><path class="cls-15" d="M18.92,21.91a3.17,3.17,0,0,1,3.13,0" transform="translate(0 -2.94)"/><path class="cls-15" d="M26.24,21.91a3.17,3.17,0,0,1,3.13,0" transform="translate(0 -2.94)"/><path class="cls-15" d="M27.63,29a6.61,6.61,0,0,1-6.54,0" transform="translate(0 -2.94)"/><circle cx="20.48" cy="20.08" r="0.75"/><circle cx="27.92" cy="20.08" r="0.75"/><path class="cls-16" d="M24.4,23.76,25.24,27s-.93.79-1.74.42" transform="translate(0 -2.94)"/><polygon class="cls-17" points="24.37 35.81 26.87 39.22 30.87 33.29 28.63 31.88 24.37 35.81"/><polygon class="cls-17" points="24.37 35.81 21.87 39.22 17.8 33.44 20.04 31.88 24.37 35.81"/><path class="cls-17" d="M43.22,41.25c-1.62-3-14-5.93-14-5.93v0l-.16,0a26.56,26.56,0,0,1-1.5,9.93c-.63,1.94-1.34,3.9-2,5.54l-1.24,3.34s-1.22-2.69-1.46-3.34c-.62-1.64-1.33-3.6-2-5.54a26.56,26.56,0,0,1-1.5-9.93l-.16,0v0s-12.37,3-14,5.93c-.59,1.07-2.39,11.59-3.61,17.26-.83,3.88,1.09,6.88,4.62,8.69l2.37,1.21H39.54l2.53-1.25c3.6-1.78,5.58-4.82,4.74-8.74C45.59,52.77,43.81,42.31,43.22,41.25Z" transform="translate(0 -2.94)"/><rect class="cls-18" x="11.4" y="63.48" width="25.43" height="1.36"/><path class="cls-19" d="M38.32,43.9H9.9a1.23,1.23,0,0,0-1.22,1.23V65.58A1.23,1.23,0,0,0,9.9,66.81H38.32a1.23,1.23,0,0,0,1.22-1.23V45.13A1.23,1.23,0,0,0,38.32,43.9Z" transform="translate(0 -2.94)"/><rect class="cls-19" x="9.16" y="64.45" width="29.89" height="1.6"/><path class="cls-20" d="M25.28,55.36a1.17,1.17,0,1,1-1.17-1.17A1.17,1.17,0,0,1,25.28,55.36Z" transform="translate(0 -2.94)"/></g></g></svg>