<svg xmlns="http://www.w3.org/2000/svg" xmlns:xlink="http://www.w3.org/1999/xlink" viewBox="0 0 61.37 66.41"><defs><style>.cls-1,.cls-10,.cls-11{fill:none;}.cls-2{fill:#fde1d5;}.cls-12,.cls-14,.cls-3{fill:#4084c0;}.cls-13,.cls-4{fill:#59a1d7;}.cls-5{fill:#ecb9ae;}.cls-6{fill:#ecb8ae;}.cls-7{fill:#e7b644;}.cls-8{fill:#b5b4b4;}.cls-9{clip-path:url(#clip-path);}.cls-10,.cls-11,.cls-14{stroke:#000;stroke-miterlimit:10;}.cls-10{stroke-linecap:round;}.cls-12,.cls-13,.cls-14{fill-rule:evenodd;}.cls-14{stroke-width:2px;}</style><clipPath id="clip-path" transform="translate(-5.34)"><path class="cls-1" d="M43.4,28.78s4.14-8.84-2.73-10.4L38.33,14,35,11.84l-13,.38-4,6.12L15,19.76l-4.24,3.8L18,34.72l2.5,1.78v.82h-16L0,61l8.14,9.75L21.86,70l32.28-.41-.27-5.39-29.42,0,.44-16.85V46.18l4.38-3.31,6.1,4.66-.9,15.73,24,2.07Z"/></clipPath></defs><g id="Layer_2" data-name="Layer 2"><g id="Layer_1-2" data-name="Layer 1"><path class="cls-2" d="M39,26a10.81,10.81,0,0,1-.71,4.87,9.74,9.74,0,0,1-3.66,4.43l-.53.31a8,8,0,0,1-4,1.19,7.68,7.68,0,0,1-3.87-1.33,9.45,9.45,0,0,1-4.71-8.1c-.1-3,0-6,0-9l.82,0c1.75,0,3.5.05,5.25,0a7.15,7.15,0,0,0,4.45-1.65c.57-.47,1.13-1,1.74-1.49,1.31.79,2.77,1.72,4.28,2.54a1.48,1.48,0,0,1,1,1.7Z" transform="translate(-5.34)"/><path class="cls-3" d="M38,65.33H17.17v-13H15v13H12.8c0-.52.11-1,.14-1.55.1-1.9.18-3.8.28-5.7,0-.77.09-1.54.14-2.31.18-2.55.42-5.1.51-7.65a7.32,7.32,0,0,1,1.41-4.38,6.11,6.11,0,0,1,4.36-2.6,9.69,9.69,0,0,1,.73.7c1,1.11,2,2.23,3,3.35.3.34.53.4.9.07s5.5-4.12,5.93-4.4C31,42,35.1,45,36,46.16c-.23,1.89-1.06,4.72-1.3,6.61s-.19,5.76-.44,7.74S38.28,63.37,38,65.33Z" transform="translate(-5.34)"/><path class="cls-3" d="M41.24,65.33H32.47c-.33-2.68-.64-5.36-1-8-.39-3.15-.8-6.3-1.2-9.45l2.6-3.42a13.39,13.39,0,0,1,1.33.89.49.49,0,0,0,.8-.07c.47-.52.95-1,1.41-1.56l3-3.48c1.58.36,3.19.64,4.74,1.11A6.75,6.75,0,0,1,48.88,48l-3.26-.13V45.68H39.08V61h2.14Z" transform="translate(-5.34)"/><path class="cls-4" d="M19.64,41.14a6.11,6.11,0,0,0-4.36,2.6,7.32,7.32,0,0,0-1.41,4.38c-.09,2.55-.33,5.1-.51,7.65,0,.77-.1,1.54-.14,2.31-.1,1.9-.18,3.8-.28,5.7,0,.52-.09,1-.14,1.55H8.45c.05-1.1.08-2.14.14-3.17s.18-1.89.24-2.84c.15-2.62.27-5.25.44-7.87a42.36,42.36,0,0,1,.41-4.8,6.54,6.54,0,0,1,5.12-5.48c1.37-.38,2.78-.65,4.17-1Z" transform="translate(-5.34)"/><path class="cls-5" d="M21.55,18.34c0,3-.08,6,0,9a9.45,9.45,0,0,0,4.71,8.1,7.68,7.68,0,0,0,3.87,1.33,8,8,0,0,0,4-1.19l.53-.31,0,1.21a2.07,2.07,0,0,0-.44.15A9.2,9.2,0,0,1,29.08,38a29.47,29.47,0,0,1-3.13-.4,2.58,2.58,0,0,1,0,.54c-.16.79.23,1.12.92,1.37,1.13.41,2.22.91,3.32,1.37l-.82.42s0,.06,0,.09l-.13,0a2.33,2.33,0,0,0-.34-.2l-5.13-2.07c0-1.09,0-2.18,0-3.27a1.17,1.17,0,0,0-.36-.81,9.89,9.89,0,0,1-4-8.4c0-.18,0-.36,0-.63H18.5a3.19,3.19,0,0,1-3.19-1.91A3,3,0,0,1,16,20.37a.62.62,0,0,0,.11-.17,4.5,4.5,0,0,1,3.23-.79l.07-1.07Z" transform="translate(-5.34)"/><path class="cls-4" d="M45.62,58.78a9.82,9.82,0,0,1,4.07.79c.1,1.69.18,3.38.29,5.07,0,.5-.08.73-.66.71-2,0-4,0-5.92,0,0-1.45,0-2.9,0-4.34h2.2Z" transform="translate(-5.34)"/><path class="cls-4" d="M23.73,39.08l5.13,2.07a2.33,2.33,0,0,1,.34.2l-3.6,2.82c-.06,0-.06.16-.09.25a10.08,10.08,0,0,0-1.28.84c-.37.33-.6.27-.9-.07-1-1.12-2-2.24-3-3.35a9.69,9.69,0,0,0-.73-.7L19,40.21Z" transform="translate(-5.34)"/><path class="cls-4" d="M29.34,41.28l.82-.42,4.51-1.78,4.77,1.12-3,3.48c-.46.53-.94,1-1.41,1.56a.49.49,0,0,1-.8.07,13.39,13.39,0,0,0-1.33-.89,3.48,3.48,0,0,0-.45-.55c-1-.82-2-1.62-3-2.43Z" transform="translate(-5.34)"/><path class="cls-6" d="M39.05,19.4a4.52,4.52,0,0,1,3.25.8A3.3,3.3,0,0,1,40.06,26H39Z" transform="translate(-5.34)"/><path class="cls-2" d="M34.67,39.08l-4.51,1.78c-1.1-.46-2.19-1-3.32-1.37-.69-.25-1.08-.58-.92-1.37a2.58,2.58,0,0,0,0-.54,29.47,29.47,0,0,0,3.13.4,9.2,9.2,0,0,0,5.12-1.35,2.07,2.07,0,0,1,.44-.15Z" transform="translate(-5.34)"/><path class="cls-7" d="M52.84,30l-.2.2Z" transform="translate(-5.34)"/><path class="cls-7" d="M66.51,44.08l.2-.2Z" transform="translate(-5.34)"/><path class="cls-8" d="M29.47,41.44l-.14-.07s0-.06,0-.09Z" transform="translate(-5.34)"/><path class="cls-3" d="M41.79,65.6c.76,0,1.45-1.21,2.16-1.21v.94h2.21c0-.52-.11-1-.14-1.55-.1-1.9-.19-3.8-.28-5.7,0-.77-.09-1.54-.14-2.31-.18-2.55-.42-5.1-.52-7.65a7.31,7.31,0,0,0-1.4-4.38,6.11,6.11,0,0,0-4.37-2.6c-.24.23-.5.45-.73.7q-1.48,1.66-3,3.35c-.29.34-.52.4-.9.07a10.08,10.08,0,0,0-1.28-.84l-2.6,3.42q.35,2.83.7,5.67c.25,2,.53,4,.77,5.94s.47,3.92.71,5.88h8.77" transform="translate(-5.34)"/><path class="cls-4" d="M39.31,41.14a6.11,6.11,0,0,1,4.37,2.6,7.31,7.31,0,0,1,1.4,4.38c.1,2.55.34,5.1.52,7.65,0,.77.1,1.54.14,2.31.09,1.9.18,3.8.28,5.7,0,.52.09,1,.14,1.55h4.35c0-1.1-.08-2.14-.15-3.17s-.18-1.89-.23-2.84c-.16-2.62-.28-5.25-.44-7.87a44.8,44.8,0,0,0-.41-4.8,6.54,6.54,0,0,0-5.12-5.48c-1.38-.38-2.78-.65-4.17-1Z" transform="translate(-5.34)"/><g class="cls-9"><path d="M50.87,61.07c.06,1.06.12,2,.17,3,0,.36.07.72.07,1.09A1.09,1.09,0,0,1,50,66.41c-.14,0-.28,0-.41,0H9c-1.27,0-1.62-.36-1.55-1.64.36-5.85.72-11.72,1.1-17.57a7.9,7.9,0,0,1,6.24-7.14l7.94-1.83c0-.76,0-1.49,0-2.21a.62.62,0,0,0-.22-.39,11,11,0,0,1-4.16-8.4,14.41,14.41,0,0,1-2.13-.75,4.31,4.31,0,0,1-1.45-6.25,2,2,0,0,0,.31-1c0-2.46,0-4.92,0-7.38A8.75,8.75,0,0,1,23.9,3h9.56a5.51,5.51,0,0,1,5.47,4,1,1,0,0,0,.55.54,5.49,5.49,0,0,1,4,5.42c0,2.09,0,4.19,0,6.28a1.27,1.27,0,0,0,.18.76,4.38,4.38,0,0,1-3.38,7c-.13.87-.21,1.76-.42,2.61a10.52,10.52,0,0,1-3.5,5.64,1.31,1.31,0,0,0-.55,1.21c0,.54,0,1.09,0,1.67,2.5.57,5,1.15,7.41,1.7a8,8,0,0,1,6.69,6.74m-24.59-.8-.38.27c-1.14.88-1.43.85-2.38-.22q-1.82-2-3.62-4.09a.73.73,0,0,0-.87-.29c-1,.27-2,.45-3,.7a5.79,5.79,0,0,0-4.42,5.48c-.21,4.09-.5,8.18-.75,12.27-.09,1.39-.16,2.79-.25,4.21h5.39V52.26h2.2V64.19H25m-4.5-44.77c0,1.36,0,2.63,0,3.9a44.69,44.69,0,0,0,.15,5.18,8.64,8.64,0,0,0,8.57,7.31,8.54,8.54,0,0,0,8.59-7.35c.3-3.06.13-6.17.16-9.26a.5.5,0,0,0-.22-.37c-1.27-.79-2.56-1.55-3.87-2.34-2.11,2.4-4.81,3.08-7.84,3C24.25,19.36,22.43,19.42,20.52,19.42Zm20.7-1s.06-.08.06-.12c0-1.75,0-3.5,0-5.26a3.28,3.28,0,0,0-3.2-3.46,1.11,1.11,0,0,1-1.17-1.15,3.27,3.27,0,0,0-3.51-3.22H24.06A6.55,6.55,0,0,0,17.25,12c0,1.95,0,3.91,0,5.87,0,.19,0,.38,0,.59l1-.16c.36-.92.57-1.06,1.57-1.06h7.51a6.25,6.25,0,0,0,5.23-2.6c.59-.78,1-.87,1.85-.38,1.66,1,3.32,2,5,3,.21.12.5.27.56.47C40.16,18.41,40.69,18.4,41.22,18.43Zm6.47,28.38a5.58,5.58,0,0,0-4.18-4.56c-1-.26-2-.44-3-.71a.85.85,0,0,0-1,.32c-1.22,1.42-2.47,2.8-3.71,4.2-.75.85-1.2.89-2.08.2l-.54-.4c-.46.61-.85,1.17-1.28,1.7a1.46,1.46,0,0,0-.36,1.24c.51,3.86,1,7.72,1.46,11.58l.48,3.81h15M29.14,49,27.23,64.17H31.3m2.29-26.83a29.56,29.56,0,0,1-4.35.61,27.66,27.66,0,0,1-4.31-.63c-.09,1-.09,1,.9,1.4s1.89.8,2.86,1.12a2.08,2.08,0,0,0,1.21,0c1-.33,1.9-.75,2.85-1.12S33.75,38.31,33.59,37.34ZM31.42,41.6l3.18,2.55,2.92-3.28c-.69-.16-1.28-.32-1.88-.44a2.38,2.38,0,0,0-1-.08C33.55,40.71,32.53,41.16,31.42,41.6Zm-4.35,0c-1.94-.92-3.81-1.93-6-.65l2.82,3.16ZM27,44.48a15.55,15.55,0,0,0,1.57,2,1.34,1.34,0,0,0,1.3.06,15.28,15.28,0,0,0,1.62-2.07c-.68-.55-1.29-1.07-1.93-1.53a.68.68,0,0,0-.62,0C28.32,43.4,27.72,43.92,27,44.48Zm-8.7-23.94a2.18,2.18,0,0,0-2.16,2.37,2.06,2.06,0,0,0,2.16,1.89Zm21.9,4.32a2.19,2.19,0,0,0,2.15-2.38,2.05,2.05,0,0,0-2.15-1.88Z" transform="translate(-5.34)"/></g><path class="cls-10" d="M23.56,23.79a3.48,3.48,0,0,1,3.43,0" transform="translate(-5.34)"/><path class="cls-10" d="M31.58,23.79a3.48,3.48,0,0,1,3.43,0" transform="translate(-5.34)"/><path class="cls-10" d="M33.1,31.57a7.23,7.23,0,0,1-7.16,0" transform="translate(-5.34)"/><circle cx="19.93" cy="25.01" r="0.82"/><circle cx="28.07" cy="25.01" r="0.82"/><path class="cls-11" d="M29.56,25.82l.92,3.54s-1,.87-1.91.47" transform="translate(-5.34)"/><rect x="36.97" y="52.26" width="2.19" height="11.93"/><polygon class="cls-12" points="42.57 20.77 38.87 20.77 39.66 17.63 41.77 17.63 42.57 20.77"/><rect class="cls-3" x="40.37" y="9.41" width="0.73" height="9.26"/><path class="cls-13" d="M47.54,17.63a1.47,1.47,0,1,0-1.47,1.49,1.47,1.47,0,0,0,1.47-1.49Z" transform="translate(-5.34)"/><path class="cls-14" d="M8.14,9.17,29.3,1.07l21.2,8.1L39.72,13.29V10.05c0-2.38-5.41-3.48-10.42-3.48s-10.41,1.1-10.41,3.48v3.24Z" transform="translate(-5.34)"/><path class="cls-14" d="M26.86,18.26c.77,0,1.59-.09,2.44-.09s1.72.06,2.45.09c2.9.18,6.35.67,8.25,1.68V10c0-2.44-5.53-3.57-10.7-3.57S18.64,7.58,18.64,10v9.92c1.9-1,5.32-1.5,8.22-1.68Z" transform="translate(-5.34)"/></g></g></svg>