<svg xmlns="http://www.w3.org/2000/svg" viewBox="0 0 59 51.97"><defs><style>.cls-1{opacity:0.06;}.cls-2{fill:#fff;}.cls-3{fill:#e0e0e0;}.cls-4{fill:#3a9e32;}.cls-5{fill:#2d4375;}.cls-6{fill:#4084c0;}.cls-7{fill:#59a1d7;}.cls-8{fill:#cc2221;}.cls-12,.cls-9{fill:#ff4140;}.cls-10{fill:#f8f9fc;}.cls-11{fill:#1e2d4f;}.cls-12{font-size:5.09px;font-family:MyriadPro-Bold, Myriad Pro;font-weight:700;}.cls-13{letter-spacing:-0.04em;}.cls-14{letter-spacing:-0.02em;}</style></defs><g id="Layer_2" data-name="Layer 2"><g id="Layer_1-2" data-name="Layer 1"><g class="cls-1"><path d="M10.81,0A4.89,4.89,0,0,0,5.92,4.88v40a4.89,4.89,0,0,0,4.89,4.89H24.63V0Z"/><path d="M38.45,0H24.63V49.81H38.45a4.89,4.89,0,0,0,4.89-4.89v-40A4.89,4.89,0,0,0,38.45,0Z"/></g><path class="cls-2" d="M6,45.55a4.89,4.89,0,0,0,4.85,4.26H38.45a4.87,4.87,0,0,0,4.84-4.26Z"/><path class="cls-3" d="M28.28,0H4.84A4.89,4.89,0,0,0,0,4.26H33.6A4.89,4.89,0,0,1,38.44,0Z"/><path class="cls-3" d="M20.76,49.81H44.2A4.87,4.87,0,0,0,49,45.55H15.44a4.89,4.89,0,0,1-4.84,4.26Z"/><path class="cls-4" d="M18,35.14a3.61,3.61,0,1,0,1.31,4.93A3.61,3.61,0,0,0,18,35.14Z"/><path class="cls-4" d="M11.82,35.23a5.29,5.29,0,0,1,9.54,2l.71.15a6,6,0,0,0-11-2.32Z"/><path class="cls-4" d="M20.51,41.29a5.29,5.29,0,0,1-9.54-2l-.71-.15a6,6,0,0,0,11,2.32Z"/><rect class="cls-4" x="14.72" y="30.77" width="2.89" height="14.98" transform="translate(-24.61 46.16) rotate(-78.07)"/><path class="cls-2" d="M10.66,36.13l.48.1.19,2-.43-.09,0-.4-.56-.12-.2.35-.44-.09Zm.18,1.21-.05-.62-.32.54Z"/><path class="cls-2" d="M11.88,36.39l.81.17c.24,0,.52.18.42.7s-.46.55-.67.49a2.9,2.9,0,0,1-.39-.13l-.15.71-.42-.09Zm.59,1c.11,0,.18,0,.22-.21s0-.25-.12-.27l-.35-.07-.1.47Z"/><path class="cls-2" d="M13.43,36.71l.81.18c.24,0,.52.18.42.7s-.46.55-.67.49A2.9,2.9,0,0,1,13.6,38l-.15.71L13,38.57Zm.59,1c.11,0,.18,0,.22-.22s0-.24-.12-.26l-.35-.08-.1.48Z"/><path class="cls-2" d="M15,37l.82.18c.3.06.5.24.41.69s-.28.48-.41.5l.19.79-.47-.1-.13-.74-.24-.09L15,39l-.42-.09Zm.6,1c.12,0,.17,0,.21-.19s0-.24-.12-.26l-.35-.08-.1.46Z"/><path class="cls-2" d="M17.23,37.5c.44.1.74.25.55,1.12s-.49.86-1,.76-.74-.24-.56-1.08S16.8,37.41,17.23,37.5ZM16.91,39c.27.05.36,0,.46-.48s0-.59-.22-.65-.35,0-.46.51S16.63,39,16.91,39Z"/><path class="cls-2" d="M18.49,37.78l.08,1.41.67-1.25.44.1-1,1.73-.49-.1-.16-2Z"/><path class="cls-2" d="M19.67,38.46a.39.39,0,0,1,.52-.32s.59.14.81.22l-.07.34-.71-.15c-.13,0-.15.05-.16.12l0,.21.72.18-.08.34-.72-.13-.05.21c0,.14.06.15.13.17l.69.14-.08.35c-.2,0-.8-.13-.8-.13-.17,0-.46-.12-.38-.49Z"/><path class="cls-2" d="M21.2,38.36l.83.17c.52.11.54.58.44,1.07s-.4.88-.84.79l-.82-.18ZM21.67,40c.19,0,.3-.14.38-.51s0-.59-.14-.63l-.37-.08-.24,1.14Z"/><rect class="cls-5" x="9.19" y="19.67" width="30.87" height="4.08"/><rect class="cls-5" x="9.19" y="12.58" width="30.87" height="4.08"/><rect class="cls-5" x="9.19" y="26.76" width="30.87" height="4.08"/><polygon class="cls-6" points="40.74 16.54 26.39 29.12 26.39 49.25 40.79 49.25 40.79 16.57 40.74 16.54"/><polygon class="cls-7" points="55.18 29.55 40.79 16.57 40.79 49.25 55.18 49.25 55.18 29.55"/><polygon class="cls-8" points="52.47 16.14 52.47 25.06 50.06 21.04 50.06 16.14 52.47 16.14"/><rect class="cls-8" x="47.65" y="16.14" width="2.41" height="4.89"/><rect class="cls-9" x="47.65" y="16.82" width="1.86" height="0.97"/><rect class="cls-9" x="50.61" y="17.97" width="1.86" height="0.97"/><rect class="cls-9" x="47.69" y="19.39" width="1.86" height="0.97"/><rect class="cls-9" x="46.8" y="13.89" width="3.26" height="2.3"/><rect class="cls-9" x="50.06" y="13.89" width="3.26" height="2.3"/><rect class="cls-8" x="46.8" y="13.89" width="3.26" height="0.41"/><rect class="cls-8" x="50.06" y="13.89" width="3.26" height="0.41"/><rect class="cls-9" x="50.61" y="21.12" width="1.86" height="0.97"/><rect class="cls-10" x="37.98" y="25.26" width="2.81" height="7.79"/><rect class="cls-10" x="40.79" y="25.26" width="2.81" height="7.79"/><rect class="cls-5" x="38.61" y="25.89" width="2.18" height="6.53"/><rect class="cls-11" x="40.79" y="25.89" width="2.18" height="6.53"/><rect class="cls-9" x="35.5" y="25.26" width="2.48" height="7.79"/><rect class="cls-9" x="43.6" y="25.26" width="2.48" height="7.79"/><rect class="cls-8" x="35.73" y="26.01" width="2.03" height="0.48"/><rect class="cls-8" x="43.82" y="26.01" width="2.03" height="0.48"/><rect class="cls-8" x="35.73" y="27.46" width="2.03" height="0.48"/><rect class="cls-8" x="43.82" y="27.46" width="2.03" height="0.48"/><rect class="cls-8" x="35.73" y="28.91" width="2.03" height="0.48"/><rect class="cls-8" x="43.82" y="28.91" width="2.03" height="0.48"/><rect class="cls-8" x="35.73" y="30.36" width="2.03" height="0.48"/><rect class="cls-8" x="43.82" y="30.36" width="2.03" height="0.48"/><rect class="cls-8" x="35.73" y="31.8" width="2.03" height="0.48"/><rect class="cls-8" x="43.82" y="31.8" width="2.03" height="0.48"/><rect class="cls-5" x="25.07" y="49.25" width="31.43" height="2.73"/><polygon class="cls-2" points="40.79 17.66 40.79 13.99 24.52 29.36 26.39 31.23 26.39 31.23 40.79 17.66"/><polygon class="cls-2" points="40.79 13.99 40.79 17.66 55.18 31.23 57.07 29.34 40.79 13.99"/><polygon class="cls-5" points="40.79 11.91 22.59 29.1 24.68 31.2 40.79 16.02 40.79 11.91"/><polygon class="cls-5" points="40.79 11.91 40.79 16.02 56.89 31.2 56.89 31.2 59 29.09 40.79 11.91"/><rect class="cls-10" x="34.67" y="35.99" width="6.11" height="11.36"/><rect class="cls-10" x="40.79" y="35.99" width="6.12" height="11.36"/><rect class="cls-11" x="40.79" y="36.9" width="5.26" height="9.53"/><rect class="cls-5" x="35.53" y="36.9" width="5.25" height="9.53"/><rect class="cls-9" x="31.26" y="35.99" width="3.41" height="11.36"/><rect class="cls-9" x="46.89" y="35.99" width="3.41" height="11.36"/><rect class="cls-8" x="31.58" y="37.08" width="2.8" height="0.71"/><rect class="cls-8" x="47.21" y="37.08" width="2.8" height="0.71"/><rect class="cls-8" x="31.58" y="39.19" width="2.8" height="0.71"/><rect class="cls-8" x="47.21" y="39.19" width="2.8" height="0.71"/><rect class="cls-8" x="31.58" y="41.31" width="2.8" height="0.71"/><rect class="cls-8" x="47.21" y="41.31" width="2.8" height="0.71"/><rect class="cls-8" x="31.58" y="43.42" width="2.8" height="0.71"/><rect class="cls-8" x="47.21" y="43.42" width="2.8" height="0.71"/><rect class="cls-8" x="31.58" y="45.53" width="2.8" height="0.71"/><rect class="cls-8" x="47.21" y="45.53" width="2.8" height="0.71"/><rect class="cls-10" x="35.14" y="40.63" width="11.29" height="0.78"/><rect class="cls-10" x="40.42" y="36.4" width="0.74" height="4.9"/><text class="cls-12" transform="translate(11.02 10.11)">HOME <tspan class="cls-13" x="15.22" y="0">L</tspan><tspan class="cls-14" x="17.63" y="0">O</tspan><tspan x="21.2" y="0">AN</tspan></text></g></g></svg>