<svg xmlns="http://www.w3.org/2000/svg" viewBox="0 0 57.14 52.72"><defs><style>.cls-1{opacity:0.06;}.cls-2{fill:#fff;}.cls-3{fill:#e0e0e0;}.cls-4{fill:#3a9e32;}.cls-5{fill:#2d4375;}.cls-6{fill:#dadfe3;}.cls-15,.cls-7{fill:#f0f5f9;}.cls-8{fill:#dfe4e8;}.cls-9{fill:#b8c0c9;}.cls-10{fill:#02629e;}.cls-11{fill:#0270ab;}.cls-12{fill:#d0dae4;}.cls-13{fill:#00579c;}.cls-14{fill:#004679;}.cls-15{opacity:0.1;}.cls-16{font-size:5.18px;fill:#ff4140;font-family:MyriadPro-Bold, Myriad Pro;font-weight:700;letter-spacing:0.01em;}.cls-17{letter-spacing:0em;}.cls-18{letter-spacing:-0.04em;}.cls-19{letter-spacing:-0.02em;}.cls-20{letter-spacing:0em;}</style></defs><g id="Layer_2" data-name="Layer 2"><g id="Layer_1-2" data-name="Layer 1"><g class="cls-1"><path d="M11,0A5,5,0,0,0,6,5V45.69a5,5,0,0,0,5,5H25.05V0Z"/><path d="M39.1,0h-14V50.65H39.1a5,5,0,0,0,5-5V5A5,5,0,0,0,39.1,0Z"/></g><path class="cls-2" d="M6.07,46.32A5,5,0,0,0,11,50.65H39.1A5,5,0,0,0,44,46.32Z"/><path class="cls-3" d="M28.76,0H4.92A5,5,0,0,0,0,4.33H34.17A5,5,0,0,1,39.1,0Z"/><path class="cls-3" d="M21.11,50.65H45a5,5,0,0,0,4.92-4.33H15.7a5,5,0,0,1-4.92,4.33Z"/><path class="cls-4" d="M18.28,35.74a3.67,3.67,0,1,0,1.33,5A3.68,3.68,0,0,0,18.28,35.74Z"/><path class="cls-4" d="M12,35.83a5.38,5.38,0,0,1,9.7,2.05l.72.15A6.06,6.06,0,0,0,11.3,35.68Z"/><path class="cls-4" d="M20.85,42a5.38,5.38,0,0,1-9.7-2.05l-.72-.15a6.07,6.07,0,0,0,11.14,2.35Z"/><rect class="cls-4" x="14.97" y="31.29" width="2.94" height="15.23" transform="translate(-25.03 46.95) rotate(-78.07)"/><path class="cls-2" d="M10.84,36.74l.49.11.2,2-.45-.09,0-.41-.57-.12-.2.35-.45-.09ZM11,38,11,37.34l-.32.56Z"/><path class="cls-2" d="M12.08,37l.82.18c.25,0,.54.18.43.71s-.46.57-.68.5a2.47,2.47,0,0,1-.39-.13L12.1,39l-.42-.09Zm.6,1c.11,0,.18,0,.22-.21s0-.25-.11-.27l-.37-.08-.1.48Z"/><path class="cls-2" d="M13.65,37.34l.83.17c.25.05.53.19.42.71s-.45.57-.68.51l-.39-.14-.15.72-.42-.08Zm.61,1c.11,0,.18,0,.22-.21s0-.25-.12-.27L14,37.79l-.1.49Z"/><path class="cls-2" d="M15.23,37.67l.83.18c.32.06.52.25.42.71s-.28.48-.41.5l.19.8-.48-.1L15.65,39l-.24-.09-.16.73-.42-.09Zm.61,1c.13,0,.18,0,.22-.2s0-.24-.12-.27l-.36-.07-.1.46Z"/><path class="cls-2" d="M17.52,38.14c.45.09.75.25.57,1.13s-.51.88-1,.78-.75-.24-.57-1.1S17.09,38.05,17.52,38.14Zm-.32,1.53c.27,0,.37,0,.46-.49s.05-.6-.22-.65-.35,0-.47.51S16.91,39.61,17.2,39.67Z"/><path class="cls-2" d="M18.8,38.42l.09,1.43.68-1.26.45.09-1,1.76-.5-.1-.17-2Z"/><path class="cls-2" d="M20,39.11a.39.39,0,0,1,.53-.32s.61.14.83.22l-.08.35-.72-.15c-.13,0-.15,0-.16.11l0,.22.73.18-.08.35-.73-.13-.05.21c0,.14.06.16.13.17l.7.15-.08.35c-.2,0-.82-.13-.82-.13-.17,0-.46-.13-.38-.5Z"/><path class="cls-2" d="M21.56,39l.84.17c.53.12.55.6.45,1.09s-.4.9-.85.8l-.84-.17ZM22,40.7c.2,0,.31-.15.39-.52s0-.6-.15-.64l-.37-.08-.25,1.16Z"/><rect class="cls-5" x="9.35" y="20" width="31.39" height="4.15"/><rect class="cls-5" x="9.35" y="12.8" width="31.39" height="4.15"/><rect class="cls-5" x="9.35" y="27.21" width="31.39" height="4.15"/><rect class="cls-6" x="35.1" y="11.8" width="4.69" height="40.85"/><rect class="cls-7" x="26.57" y="11.8" width="8.53" height="40.85"/><rect class="cls-8" x="26.57" y="10.8" width="8.53" height="1"/><rect class="cls-9" x="35.1" y="10.8" width="4.69" height="1"/><rect class="cls-10" x="29.33" y="15.99" width="3.01" height="4.68"/><rect class="cls-11" x="29.33" y="15.99" width="0.81" height="4.68"/><rect class="cls-9" x="29.33" y="20.66" width="3.01" height="0.72"/><rect class="cls-10" x="29.33" y="24.85" width="3.01" height="4.68"/><rect class="cls-11" x="29.33" y="24.85" width="0.81" height="4.68"/><rect class="cls-9" x="29.33" y="29.52" width="3.01" height="0.72"/><rect class="cls-10" x="29.33" y="33.71" width="3.01" height="4.68"/><rect class="cls-11" x="29.33" y="33.71" width="0.81" height="4.68"/><rect class="cls-9" x="29.33" y="38.38" width="3.01" height="0.72"/><rect class="cls-10" x="29.33" y="42.57" width="3.01" height="4.68"/><rect class="cls-11" x="29.33" y="42.57" width="0.81" height="4.68"/><rect class="cls-9" x="29.33" y="47.25" width="3.01" height="0.72"/><rect class="cls-12" x="26.57" y="51.64" width="8.53" height="1.01"/><rect class="cls-6" x="52.45" y="11.8" width="4.69" height="40.85"/><rect class="cls-7" x="43.92" y="11.8" width="8.53" height="40.85"/><rect class="cls-8" x="43.92" y="10.8" width="8.53" height="1"/><rect class="cls-9" x="52.45" y="10.8" width="4.69" height="1"/><rect class="cls-10" x="46.68" y="15.99" width="3.01" height="4.68"/><rect class="cls-11" x="46.68" y="15.99" width="0.81" height="4.68"/><rect class="cls-9" x="46.68" y="20.66" width="3.01" height="0.72"/><rect class="cls-10" x="46.68" y="24.85" width="3.01" height="4.68"/><rect class="cls-11" x="46.68" y="24.85" width="0.81" height="4.68"/><rect class="cls-9" x="46.68" y="29.52" width="3.01" height="0.72"/><rect class="cls-10" x="46.68" y="33.71" width="3.01" height="4.68"/><rect class="cls-11" x="46.68" y="33.71" width="0.81" height="4.68"/><rect class="cls-9" x="46.68" y="38.38" width="3.01" height="0.72"/><rect class="cls-10" x="46.68" y="42.57" width="3.01" height="4.68"/><rect class="cls-11" x="46.68" y="42.57" width="0.81" height="4.68"/><rect class="cls-9" x="46.68" y="47.25" width="3.01" height="0.72"/><rect class="cls-12" x="43.92" y="51.64" width="8.53" height="1.01"/><rect class="cls-9" x="52.45" y="51.64" width="4.69" height="1.01"/><rect class="cls-10" x="35.1" y="12.78" width="8.82" height="39.87"/><rect class="cls-11" x="35.1" y="12.78" width="2.34" height="39.94"/><rect class="cls-11" x="39.51" y="12.78" width="1.17" height="39.94"/><rect class="cls-13" x="35.1" y="11.8" width="8.82" height="0.98"/><rect class="cls-14" x="35.1" y="18.32" width="8.82" height="0.53"/><rect class="cls-14" x="35.1" y="27.74" width="8.82" height="0.53"/><rect class="cls-14" x="35.1" y="37.15" width="8.82" height="0.53"/><rect class="cls-14" x="35.1" y="46.56" width="8.82" height="0.53"/><polygon class="cls-15" points="43.92 35.14 35.09 43.97 35.09 40.68 43.92 31.85 43.92 35.14"/><polygon class="cls-15" points="43.92 27.27 35.09 36.1 35.09 12.78 43.92 12.78 43.92 27.27"/><text class="cls-16" transform="translate(10.77 9.4)">L<tspan class="cls-17" x="2.68" y="0">AP </tspan><tspan class="cls-18" x="10.13" y="0">L</tspan><tspan class="cls-19" x="12.58" y="0">O</tspan><tspan class="cls-20" x="16.22" y="0">ANS</tspan></text></g></g></svg>