<svg xmlns="http://www.w3.org/2000/svg" viewBox="0 0 64 66.36"><defs><style>.cls-1{fill:#fff;}.cls-2{fill:#e8e8e8;}.cls-3{fill:#0069cc;}.cls-4{fill:#ff4140;}.cls-5{fill:#c8c8ca;}.cls-6{fill:#fde1d5;}.cls-7{fill:#5a5b5d;}.cls-8{fill:#4084c0;}.cls-9{fill:#59a1d7;}.cls-10{fill:#ecb9ae;}.cls-11{fill:#ec8585;}.cls-12{fill:#404143;}.cls-13{fill:#ecb8ae;}.cls-14{fill:#e7b644;}.cls-15{fill:#c33636;}.cls-16{fill:#b5b4b4;}.cls-17,.cls-18{fill:none;stroke:#000;stroke-miterlimit:10;}.cls-17{stroke-linecap:round;}</style></defs><g id="Layer_2" data-name="Layer 2"><g id="Layer_1-2" data-name="Layer 1"><rect class="cls-1" x="23.68" y="30.57" width="32.07" height="13.5" transform="translate(-8.28 63.14) rotate(-71.5)"/><polygon class="cls-2" points="64 28.53 56.23 51.75 46.63 56.54 41.03 54.67 51.2 24.25 64 28.53"/><polygon class="cls-1" points="49.04 49.34 56.23 51.75 46.63 56.54 49.04 49.34"/><rect class="cls-3" x="39.54" y="27.43" width="1.94" height="6.48" transform="translate(-1.43 59.36) rotate(-71.5)"/><rect class="cls-3" x="49.36" y="31.97" width="1.94" height="3.98" transform="translate(2.16 70.92) rotate(-71.5)"/><rect class="cls-3" x="45.09" y="30.78" width="1.94" height="3.51" transform="translate(0.6 65.9) rotate(-71.51)"/><rect class="cls-3" x="54.93" y="32.61" width="1.94" height="6.44" transform="translate(4.19 77.47) rotate(-71.5)"/><rect class="cls-3" x="36.22" y="32.96" width="1.94" height="2.39" transform="translate(-7.01 58.59) rotate(-71.5)"/><rect class="cls-3" x="40.09" y="33.41" width="1.94" height="4.09" transform="translate(-5.59 63.15) rotate(-71.5)"/><rect class="cls-3" x="45.37" y="34.65" width="1.94" height="5.15" transform="translate(-3.66 69.36) rotate(-71.5)"/><rect class="cls-3" x="55.61" y="39.61" width="1.94" height="2.08" transform="translate(0.09 81.41) rotate(-71.51)"/><rect class="cls-3" x="51.48" y="36.37" width="1.94" height="5.79" transform="translate(-1.43 76.55) rotate(-71.5)"/><rect class="cls-3" x="34.78" y="37.13" width="1.94" height="2.28" transform="translate(-11.89 60.04) rotate(-71.51)"/><rect class="cls-3" x="39.62" y="36.89" width="1.94" height="6" transform="translate(-10.12 65.73) rotate(-71.5)"/><rect class="cls-3" x="46.25" y="39" width="1.94" height="6.21" transform="translate(-7.7 73.53) rotate(-71.5)"/><rect class="cls-3" x="52.34" y="41.12" width="1.94" height="6.06" transform="translate(-5.47 80.7) rotate(-71.5)"/><rect class="cls-3" x="34.06" y="40.79" width="1.94" height="3.67" transform="translate(-16.51 62.32) rotate(-71.5)"/><rect class="cls-3" x="40.48" y="40.58" width="1.94" height="8.39" transform="translate(-14.16 69.88) rotate(-71.5)"/><rect class="cls-3" x="49.4" y="43.08" width="1.94" height="9.36" transform="translate(-10.9 80.37) rotate(-71.5)"/><rect class="cls-3" x="33.61" y="44.25" width="1.94" height="5.64" transform="translate(-21.03 64.93) rotate(-71.5)"/><path class="cls-4" d="M45.54,25.2l1.84.61c1.17.39,1.1,1.48.73,2.57C47.67,29.71,47,30.3,46,30l-1.84-.62Zm.64,3.93c.43.14.73-.24,1-1.06.36-1.08.21-1.36-.15-1.48l-.83-.28-.85,2.54Z"/><path class="cls-4" d="M48.87,27.32a.89.89,0,0,1,1.27-.58s1.34.47,1.81.7l-.26.78-1.58-.53c-.3-.1-.35.06-.4.22l-.16.47,1.59.6-.26.77-1.63-.49-.15.47c-.1.3.08.36.25.41l1.53.52-.26.77c-.46-.09-1.82-.5-1.82-.5a.9.9,0,0,1-.73-1.22Z"/><path class="cls-4" d="M52.41,27.5l1.76.58A1.11,1.11,0,0,1,55,29.61c-.13.37-.46.76-.88.68a.91.91,0,0,1,.36,1.13,1.15,1.15,0,0,1-1.68.82L51,31.65ZM53,31.43c.23.07.43,0,.54-.36s.08-.54-.2-.63l-.81-.27-.33,1Zm.55-1.77a.35.35,0,0,0,.48-.27.37.37,0,0,0-.22-.53l-.75-.25-.27.8Z"/><path class="cls-4" d="M55.7,28.6l3.14,1-.28.84-1.12-.37-1.11,3.3-.93-.31,1.11-3.3-1.09-.37Z"/><path class="cls-4" d="M58.15,33.24a.13.13,0,0,1,.18-.09l.57.19a.12.12,0,0,1,.08.18l-.19.58a.13.13,0,0,1-.17.09L58.05,34a.13.13,0,0,1-.09-.18Zm2-3.14-1.11,3-.73-.24.93-3.06Z"/><polygon class="cls-1" points="11.92 23.93 11.81 24.97 10.77 24.8 10.66 25.85 9.62 25.68 9.51 26.73 8.47 26.56 8.36 27.61 6.44 26.47 15.65 38.13 16.51 38.28 16.62 37.23 17.66 37.4 17.77 36.35 18.81 36.52 18.92 35.47 19.96 35.64 20.07 34.6 20.29 34.63 12.14 23.96 11.92 23.93"/><polygon class="cls-2" points="16.52 20.41 16.41 21.46 15.37 21.29 15.26 22.34 14.22 22.17 14.11 23.22 13.07 23.05 12.96 24.09 12.14 23.96 20.29 34.63 21.11 34.77 21.22 33.72 22.26 33.89 22.37 32.84 23.41 33.01 23.52 31.96 24.56 32.13 24.67 31.09 25.43 31.21 17.28 20.54 16.52 20.41"/><rect class="cls-1" x="16.74" y="24.35" width="2.5" height="1.15" transform="translate(-11.44 16.04) rotate(-37.38)"/><rect class="cls-1" x="18.11" y="26.15" width="2.5" height="1.15" transform="translate(-12.25 17.24) rotate(-37.38)"/><rect class="cls-5" x="10.05" y="28.41" width="5.25" height="1.15" transform="translate(-14.99 13.65) rotate(-37.37)"/><rect class="cls-1" x="14.56" y="26.22" width="1.97" height="1.15" transform="translate(-13.07 14.94) rotate(-37.38)"/><rect class="cls-1" x="15.93" y="28.01" width="1.97" height="1.15" transform="translate(-13.88 16.14) rotate(-37.38)"/><rect class="cls-5" x="11.43" y="30.2" width="5.25" height="1.15" transform="translate(-15.8 14.85) rotate(-37.38)"/><rect class="cls-1" x="17.3" y="29.81" width="1.97" height="1.15" transform="translate(-14.69 17.34) rotate(-37.38)"/><rect class="cls-5" x="12.8" y="32" width="5.25" height="1.15" transform="translate(-16.61 16.05) rotate(-37.38)"/><rect class="cls-1" x="19.48" y="27.94" width="2.5" height="1.15" transform="translate(-13.05 18.44) rotate(-37.38)"/><rect class="cls-5" x="18.63" y="30.31" width="5.11" height="1.89" transform="translate(-14.62 19.28) rotate(-37.38)"/><polygon class="cls-5" points="9.79 27.95 10.04 28.08 10.28 27.94 10.24 28.22 10.44 28.41 10.17 28.45 10.05 28.71 9.92 28.46 9.64 28.43 9.84 28.23 9.79 27.95"/><polygon class="cls-5" points="10.84 27.15 11.09 27.27 11.33 27.14 11.29 27.41 11.49 27.6 11.22 27.65 11.1 27.9 10.97 27.66 10.7 27.62 10.89 27.42 10.84 27.15"/><polygon class="cls-5" points="15.84 23.33 16.08 23.46 16.33 23.32 16.29 23.6 16.49 23.79 16.22 23.83 16.1 24.09 15.97 23.84 15.69 23.8 15.89 23.61 15.84 23.33"/><polygon class="cls-5" points="16.89 22.53 17.14 22.65 17.38 22.52 17.34 22.79 17.54 22.98 17.27 23.03 17.15 23.28 17.02 23.04 16.75 23 16.94 22.8 16.89 22.53"/><path class="cls-4" d="M11.45,26.14l.54-.41a.41.41,0,0,1,.64.06.32.32,0,0,1,0,.41.35.35,0,0,1,.42.12A.43.43,0,0,1,13,27l-.55.42Zm.9.1a.14.14,0,0,0,0-.21.14.14,0,0,0-.21,0l-.23.18.19.25Zm.43.53c.07-.05.08-.13,0-.24s-.15-.13-.24-.07l-.24.19.23.31Z"/><path class="cls-4" d="M12.51,25.33l.29-.22,1,1.28-.28.22Z"/><path class="cls-4" d="M13,25l.28-.22.71.93c.08.09.13,0,.18,0l.41-.31.2.26-.53.4a.3.3,0,0,1-.47,0Z"/><path class="cls-4" d="M13.9,24.27l.29-.22.71.93c.07.1.13.05.18,0l.4-.31.2.26-.52.4a.31.31,0,0,1-.48,0Z"/><polygon class="cls-2" points="12.09 34.56 23.57 60.77 12.54 65.6 0 38.4 12.09 34.56"/><polygon class="cls-2" points="23.12 29.73 31.88 49.74 28.39 58.66 23.57 60.77 12.09 34.56 23.12 29.73"/><polygon class="cls-1" points="25.68 52.45 31.88 49.74 28.39 58.66 25.68 52.45"/><polygon class="cls-3" points="11.16 43.26 4.8 44.59 5.5 46.17 11.85 44.84 11.16 43.26"/><rect class="cls-3" x="15.55" y="40.64" width="3.55" height="1.73" transform="translate(-15.19 10.43) rotate(-23.65)"/><rect class="cls-3" x="12.08" y="42.25" width="3.13" height="1.73" transform="translate(-16.15 9.09) rotate(-23.65)"/><rect class="cls-3" x="19.25" y="38.54" width="5.74" height="1.73" transform="translate(-13.95 12.18) rotate(-23.65)"/><polygon class="cls-3" points="9.38 48.28 6.37 48.15 8.12 50.72 10.07 49.87 9.38 48.28"/><rect class="cls-3" x="10.27" y="47.18" width="3.65" height="1.73" transform="translate(-18.26 8.88) rotate(-23.65)"/><rect class="cls-3" x="14.34" y="45.18" width="4.6" height="1.73" transform="translate(-17.07 10.54) rotate(-23.65)"/><rect class="cls-3" x="24.53" y="41.32" width="1.86" height="1.73" transform="translate(-14.78 13.76) rotate(-23.65)"/><rect class="cls-3" x="19.32" y="42.88" width="5.16" height="1.73" transform="translate(-15.71 12.46) rotate(-23.65)"/><rect class="cls-3" x="9.24" y="52.22" width="2.04" height="1.73" transform="translate(-20.43 8.58) rotate(-23.65)"/><rect class="cls-3" x="11.75" y="50.4" width="5.35" height="1.73" transform="translate(-19.35 10.09) rotate(-23.65)"/><rect class="cls-3" x="17.37" y="47.89" width="5.54" height="1.73" transform="translate(-17.87 12.18) rotate(-23.65)"/><rect class="cls-3" x="22.69" y="45.6" width="5.41" height="1.73" transform="translate(-16.5 14.09) rotate(-23.65)"/><rect class="cls-3" x="10.75" y="55.54" width="3.27" height="1.73" transform="translate(-21.58 9.71) rotate(-23.65)"/><rect class="cls-3" x="14.18" y="53.11" width="7.49" height="1.73" transform="translate(-20.15 11.72) rotate(-23.65)"/><rect class="cls-3" x="21.43" y="49.75" width="8.35" height="1.73" transform="translate(-18.15 14.52) rotate(-23.65)"/><rect class="cls-3" x="12.24" y="58.74" width="5.03" height="1.73" transform="translate(-22.67 10.93) rotate(-23.65)"/><path class="cls-4" d="M8.67,38l1.38-.62a.9.9,0,0,1,1.34.46.7.7,0,0,1-.15.89.74.74,0,0,1,.84.48.94.94,0,0,1-.55,1.42l-1.39.63Zm1.89.66a.29.29,0,0,0,.14-.43.3.3,0,0,0-.42-.2l-.59.27.28.63ZM11.21,40c.18-.08.25-.24.13-.52s-.25-.36-.48-.26l-.62.28.35.78Z"/><path class="cls-4" d="M11.37,36.8l.73-.33,1.47,3.25-.73.33Z"/><path class="cls-4" d="M12.52,36.28l.73-.33,1.06,2.37c.1.23.25.16.38.1l1-.46.29.66-1.32.6a.68.68,0,0,1-1-.34Z"/><path class="cls-4" d="M14.89,35.22l.73-.33,1.06,2.36c.11.24.25.17.38.11l1-.46.3.66-1.33.6a.69.69,0,0,1-1-.35Z"/><path class="cls-6" d="M41.88,24a11.25,11.25,0,0,1-.74,5.1,10.18,10.18,0,0,1-3.84,4.64c-.18.1-.36.22-.55.32a8.36,8.36,0,0,1-4.17,1.25,8.07,8.07,0,0,1-4.06-1.39,9.94,9.94,0,0,1-4.93-8.48c-.1-3.14,0-6.29,0-9.43l.85,0c1.83,0,3.66,0,5.49,0a7.46,7.46,0,0,0,4.66-1.72c.6-.5,1.19-1,1.82-1.57,1.38.83,2.9,1.8,4.49,2.67a1.53,1.53,0,0,1,1,1.77Z"/><path class="cls-7" d="M41.89,17.14a1.53,1.53,0,0,0-1-1.77c-1.59-.87-3.11-1.84-4.49-2.67-.63.55-1.22,1.07-1.82,1.57A7.46,7.46,0,0,1,29.92,16c-1.83,0-3.66,0-5.49,0a4.83,4.83,0,0,0-.54-.72A10.81,10.81,0,0,1,21,11.18a9.56,9.56,0,0,1,0-7.92c.06-.12,0-.28,0-.43a6.77,6.77,0,0,1,4.49-1.69c3.45,0,6.91.08,10.36,0a4.75,4.75,0,0,1,5,4.58A4.59,4.59,0,0,1,44.06,7.1a4.39,4.39,0,0,1,1.26,3.09c0,2.6,0,5.2,0,7.79A4.72,4.72,0,0,0,41.89,17.14Z"/><path class="cls-8" d="M28.16,65.23H19V51.57H16.72V65.23H14.41c.05-.54.11-1.08.14-1.63.11-2,.2-4,.3-6,0-.8.09-1.6.15-2.41.18-2.67.44-5.33.54-8A7.58,7.58,0,0,1,17,42.63a6.41,6.41,0,0,1,4.57-2.73c.26.24.53.47.77.74q1.56,1.74,3.1,3.51c.3.35.55.41.94.07a11.12,11.12,0,0,1,1.34-.89c.91,1.2,1.82,2.39,2.72,3.59q-.36,3-.73,5.94c-.26,2.07-.55,4.14-.81,6.21S28.41,63.18,28.16,65.23Z"/><path class="cls-8" d="M44.18,65.23H35c-.34-2.81-.67-5.61-1-8.42-.41-3.3-.84-6.59-1.26-9.89l2.72-3.59c.47.31,1,.58,1.4.93a.51.51,0,0,0,.84-.06c.48-.55,1-1.08,1.47-1.64,1.06-1.21,2.1-2.43,3.15-3.64,1.66.38,3.34.67,5,1.16a7.09,7.09,0,0,1,4.93,7l-3.42-.13V44.65H41.92v16h2.24Z"/><path class="cls-9" d="M21.57,39.9A6.41,6.41,0,0,0,17,42.63a7.58,7.58,0,0,0-1.46,4.58c-.1,2.68-.36,5.34-.54,8-.06.81-.11,1.61-.15,2.41-.1,2-.19,4-.3,6,0,.55-.09,1.09-.14,1.63H9.85c.05-1.16.09-2.24.15-3.32s.2-2,.25-3c.17-2.75.29-5.5.46-8.25a49.25,49.25,0,0,1,.43-5,6.86,6.86,0,0,1,5.36-5.74c1.44-.39,2.91-.67,4.37-1Z"/><path class="cls-10" d="M23.58,16c0,3.14-.09,6.29,0,9.43a9.94,9.94,0,0,0,4.93,8.48,8.07,8.07,0,0,0,4.06,1.39,8.36,8.36,0,0,0,4.17-1.25c.19-.1.37-.22.55-.32,0,.42,0,.84,0,1.26a2.08,2.08,0,0,0-.46.16,9.65,9.65,0,0,1-5.37,1.42c-1.08,0-2.15-.27-3.27-.42a3,3,0,0,1,0,.57c-.17.82.25,1.17,1,1.43,1.18.43,2.32,1,3.48,1.44l-.86.43s0,.06,0,.09a.17.17,0,0,1-.12,0,2.71,2.71,0,0,0-.37-.21l-5.37-2.16c0-1.14,0-2.29,0-3.43a1.26,1.26,0,0,0-.37-.84,10.36,10.36,0,0,1-4.19-8.8c0-.19,0-.37,0-.66h-.86A3.36,3.36,0,0,1,17,22a3.19,3.19,0,0,1,.72-3.86,1.13,1.13,0,0,0,.12-.18,4.68,4.68,0,0,1,3.37-.83L21.32,16Z"/><path class="cls-11" d="M32.72,46.92c.42,3.3.85,6.59,1.26,9.89.35,2.81.68,5.61,1,8.42H28.16c.25-2.05.48-4.11.74-6.16s.55-4.14.81-6.21.49-4,.73-5.94Z"/><path class="cls-12" d="M23.58,16H21.32l-.08,1.12a4.68,4.68,0,0,0-3.37.83c0-3.12-.09-6.25,0-9.36A7.37,7.37,0,0,1,21,2.83c0,.15.07.31,0,.43a9.56,9.56,0,0,0,0,7.92,10.81,10.81,0,0,0,2.88,4.09,4.83,4.83,0,0,1,.54.72Z"/><path class="cls-9" d="M48.77,58.37A10.29,10.29,0,0,1,53,59.2c.09,1.77.18,3.54.29,5.31,0,.52-.08.76-.69.74-2.06,0-4.13,0-6.19,0,0-1.52,0-3,0-4.55h2.3Z"/><path class="cls-9" d="M25.85,37.75l5.37,2.16a2.71,2.71,0,0,1,.37.21l-3.78,3c-.06.05-.06.17-.09.25a11.12,11.12,0,0,0-1.34.89c-.39.34-.64.28-.94-.07q-1.55-1.77-3.1-3.51c-.24-.27-.51-.5-.77-.74l-.7-1Z"/><path class="cls-9" d="M31.73,40.05l.86-.43,4.72-1.87,5,1.17c-1,1.21-2.09,2.43-3.15,3.64-.48.56-1,1.09-1.47,1.64a.51.51,0,0,1-.84.06c-.43-.35-.93-.62-1.4-.93a3.17,3.17,0,0,0-.47-.56c-1-.86-2.07-1.7-3.11-2.55Z"/><path class="cls-13" d="M41.89,17.14a4.72,4.72,0,0,1,3.4.84A3.45,3.45,0,0,1,43,24c-.35,0-.71,0-1.07,0Z"/><path class="cls-6" d="M37.31,37.75l-4.72,1.87c-1.16-.49-2.3-1-3.48-1.44-.72-.26-1.14-.61-1-1.43a3,3,0,0,0,0-.57c1.12.15,2.19.38,3.27.42a9.65,9.65,0,0,0,5.37-1.42,2.08,2.08,0,0,1,.46-.16Z"/><path class="cls-14" d="M56.33,28.25l-.21.21Z"/><path class="cls-15" d="M31.86,40.22c1,.85,2.08,1.69,3.11,2.55a3.17,3.17,0,0,1,.47.56c-.9,1.2-1.81,2.39-2.72,3.59H30.44c-.9-1.2-1.81-2.39-2.72-3.59,0-.08,0-.2.09-.25l3.78-3a.17.17,0,0,0,.12,0Z"/><path class="cls-16" d="M31.86,40.22l-.15-.08s0-.06,0-.09Z"/><path class="cls-8" d="M44.76,65.51c.8,0,1.52-1.27,2.27-1.27v1h2.3c0-.54-.11-1.08-.14-1.63-.11-2-.19-4-.3-6,0-.8-.09-1.6-.14-2.41-.19-2.67-.44-5.33-.54-8a7.66,7.66,0,0,0-1.47-4.58,6.41,6.41,0,0,0-4.57-2.73c-.26.24-.53.47-.77.74q-1.56,1.74-3.1,3.51c-.3.35-.55.41-.94.07A10.39,10.39,0,0,0,36,43.33L33.3,46.92q.36,3,.73,5.94c.26,2.07.55,4.14.81,6.21s.49,4.11.74,6.16h9.18"/><path class="cls-9" d="M42.17,39.9a6.41,6.41,0,0,1,4.57,2.73,7.66,7.66,0,0,1,1.47,4.58c.1,2.68.35,5.34.54,8,0,.81.1,1.61.14,2.41.11,2,.19,4,.3,6,0,.55.09,1.09.14,1.63h4.56c0-1.16-.08-2.24-.15-3.32s-.19-2-.25-3c-.16-2.75-.29-5.5-.46-8.25a44.14,44.14,0,0,0-.43-5,6.86,6.86,0,0,0-5.36-5.74c-1.44-.39-2.91-.67-4.36-1Z"/><path d="M54.26,60.77c.07,1.1.13,2.14.19,3.17,0,.38.07.76.07,1.14a1.15,1.15,0,0,1-1.21,1.28c-.14,0-.29,0-.43,0H10.42c-1.34,0-1.71-.38-1.63-1.71q.57-9.21,1.14-18.41a8.29,8.29,0,0,1,6.54-7.47l8.31-1.92c0-.79,0-1.55,0-2.31a.64.64,0,0,0-.22-.41,11.5,11.5,0,0,1-4.36-8.79A14.63,14.63,0,0,1,18,24.55,4.51,4.51,0,0,1,16.45,18a2,2,0,0,0,.31-1c0-2.57,0-5.15,0-7.72A9.15,9.15,0,0,1,26,0h10a5.74,5.74,0,0,1,5.71,4.21,1.06,1.06,0,0,0,.58.56,5.74,5.74,0,0,1,4.18,5.67c0,2.19,0,4.38,0,6.58a1.29,1.29,0,0,0,.19.79,4.6,4.6,0,0,1-3.54,7.38c-.14.91-.22,1.83-.44,2.72a10.91,10.91,0,0,1-3.67,5.91,1.34,1.34,0,0,0-.56,1.27c0,.56,0,1.14,0,1.75,2.62.6,5.18,1.2,7.75,1.77,3.86.86,6.27,3.12,7,7.07m-25.75-.84-.39.28c-1.19.92-1.49.89-2.49-.23-1.26-1.43-2.54-2.85-3.79-4.28a.77.77,0,0,0-.91-.31c-1,.28-2.09.48-3.13.74a6.07,6.07,0,0,0-4.62,5.74c-.22,4.28-.52,8.55-.79,12.83-.09,1.47-.17,2.93-.25,4.42h5.64V51.54h2.3V64H27.2c.13-1,.26-2,.38-2.93q.84-6.7,1.65-13.4a1.28,1.28,0,0,0-.17-.79C28.6,46.24,28.08,45.58,27.52,44.85Zm-5-27.68c0,1.42,0,2.75,0,4.08a48.92,48.92,0,0,0,.16,5.42,9.07,9.07,0,0,0,9,7.66c4.48,0,8.56-3.31,9-7.7.32-3.21.14-6.46.17-9.7a.54.54,0,0,0-.23-.39c-1.33-.82-2.67-1.62-4.05-2.44-2.21,2.51-5,3.23-8.21,3.08C26.4,17.1,24.5,17.17,22.5,17.17Zm21.67-1a.35.35,0,0,0,0-.13c0-1.83,0-3.67,0-5.5a3.43,3.43,0,0,0-3.34-3.63,1.16,1.16,0,0,1-1.23-1.2A3.44,3.44,0,0,0,36,2.29H26.2a6.86,6.86,0,0,0-7.13,7.1q0,3.07,0,6.15c0,.2,0,.4,0,.62l1-.17c.39-1,.6-1.11,1.66-1.11h7.85a6.53,6.53,0,0,0,5.48-2.72c.62-.82,1.07-.91,1.94-.4l5.2,3.13c.22.13.53.29.58.49C43.05,16.11,43.61,16.1,44.17,16.13Zm6.76,29.71a5.85,5.85,0,0,0-4.36-4.78c-1-.26-2.1-.46-3.13-.74a.88.88,0,0,0-1,.34c-1.28,1.48-2.59,2.93-3.89,4.39-.79.89-1.26.94-2.17.22l-.57-.42c-.48.64-.89,1.22-1.35,1.77a1.55,1.55,0,0,0-.36,1.3Q34.85,54,35.59,60l.51,4H51.8m-20-16h-.26L29.52,64h4.26Zm4.4-12.15a29.78,29.78,0,0,1-4.56.64,29.33,29.33,0,0,1-4.52-.66C27,37,27,37,28.06,37.37s2,.84,3,1.18a2.2,2.2,0,0,0,1.27,0c1-.34,2-.78,3-1.18S36.35,36.94,36.18,35.92Zm-2.27,4.46,3.33,2.67,3-3.43c-.72-.17-1.34-.33-2-.46a2.33,2.33,0,0,0-1.1-.08C36.13,39.45,35.07,39.92,33.91,40.38Zm-4.56,0c-2-1-4-2-6.24-.69l3,3.32Zm-.05,3A14.72,14.72,0,0,0,31,45.5a1.39,1.39,0,0,0,1.35.07A16.14,16.14,0,0,0,34,43.4c-.72-.58-1.35-1.12-2-1.6a.71.71,0,0,0-.65,0C30.66,42.27,30,42.81,29.3,43.4ZM20.19,18.34a2.27,2.27,0,0,0-2.26,2.48,2.16,2.16,0,0,0,2.26,2Zm22.92,4.52a2.29,2.29,0,0,0,2.26-2.49,2.16,2.16,0,0,0-2.26-2Z"/><path class="cls-17" d="M25.67,21.74a3.64,3.64,0,0,1,3.59,0"/><path class="cls-17" d="M34.07,21.74a3.64,3.64,0,0,1,3.59,0"/><path class="cls-17" d="M35.66,29.89a7.57,7.57,0,0,1-7.49,0"/><circle cx="27.47" cy="23.02" r="0.86"/><circle cx="35.99" cy="23.02" r="0.86"/><path class="cls-18" d="M32,23.86l1,3.71s-1.06.91-2,.49"/><rect x="45.3" y="51.54" width="2.3" height="12.49"/></g></g></svg>