<svg xmlns="http://www.w3.org/2000/svg" xmlns:xlink="http://www.w3.org/1999/xlink" viewBox="0 0 104.3 119.92"><defs><style>.cls-1,.cls-15,.cls-16{fill:none;}.cls-2{fill:#c33636;}.cls-3{clip-path:url(#clip-path);}.cls-4{fill:#fde1d5;}.cls-5{fill:#5a5b5d;}.cls-17,.cls-6{fill:#4084c0;}.cls-7{fill:#59a1d7;}.cls-8{fill:#ecb9ae;}.cls-9{fill:#ec8585;}.cls-10{fill:#404143;}.cls-11{fill:#ecb8ae;}.cls-12{fill:#e7b644;}.cls-13{fill:#b5b4b4;}.cls-14{clip-path:url(#clip-path-2);}.cls-15,.cls-16,.cls-17{stroke:#000;stroke-miterlimit:10;}.cls-15{stroke-linecap:round;}.cls-17{stroke-width:3px;}.cls-18{fill:#1f2225;}.cls-19{fill:#474656;}.cls-20{fill:#e3e3e3;}</style><clipPath id="clip-path" transform="translate(0 -5.33)"><polygon class="cls-1" points="13.44 53.33 32.38 62.41 43.02 66.03 64.89 57.69 83.81 29.01 73.33 3.51 43.25 1.48 4.1 0 5.44 29.63 13.44 53.33"/></clipPath><clipPath id="clip-path-2" transform="translate(0 -5.33)"><polygon class="cls-1" points="14.34 55.15 33.29 64.22 42.4 63.03 50.57 62.99 84.71 30.82 74.23 5.33 44.15 3.29 5.01 1.81 6.35 31.44 14.34 55.15"/></clipPath></defs><g id="Layer_2" data-name="Layer 2"><g id="Layer_1-2" data-name="Layer 1"><path class="cls-2" d="M42.77,68.8c1.64,1.34,3.29,2.66,4.91,4a6.44,6.44,0,0,1,.74.9l-4.29,5.66h-3.6l-4.29-5.66c0-.13,0-.32.14-.4l6-4.67a.45.45,0,0,0,.2,0Z" transform="translate(0 -5.33)"/><g class="cls-3"><path class="cls-4" d="M58.59,43.24a17.84,17.84,0,0,1-1.18,8,16,16,0,0,1-6,7.32c-.29.17-.57.35-.87.51a13.27,13.27,0,0,1-6.59,2,12.7,12.7,0,0,1-6.4-2.2A15.66,15.66,0,0,1,29.72,45.5c-.16-5,0-9.91,0-14.87L31,30.57c2.89,0,5.78.07,8.67,0a11.7,11.7,0,0,0,7.36-2.72c.94-.79,1.86-1.6,2.87-2.47,2.17,1.3,4.58,2.84,7.08,4.2,1.21.66,1.83,1.43,1.58,2.8C58.6,36,58.59,39.62,58.59,43.24Z" transform="translate(0 -5.33)"/><path class="cls-5" d="M58.6,32.37c.25-1.37-.37-2.14-1.58-2.8-2.5-1.36-4.91-2.9-7.08-4.2-1,.87-1.93,1.68-2.87,2.47a11.7,11.7,0,0,1-7.36,2.72c-2.89.08-5.78,0-8.67,0a7,7,0,0,0-.85-1.14A17.28,17.28,0,0,1,25.64,23c-1.62-4.17-2-8.33,0-12.51.08-.17,0-.44,0-.66a10.74,10.74,0,0,1,7.1-2.68c5.45-.06,10.91.13,16.35-.07a7.5,7.5,0,0,1,7.81,7.22A7.21,7.21,0,0,1,62,16.54a6.84,6.84,0,0,1,2,4.87q0,6.15,0,12.3C62.4,32.37,60.51,32.34,58.6,32.37Z" transform="translate(0 -5.33)"/><path class="cls-6" d="M36.94,108.26H22.44V86.71H18.87v21.55H15.23c.08-.86.18-1.71.23-2.57.16-3.14.3-6.28.46-9.42q.1-1.91.24-3.81c.29-4.21.69-8.42.85-12.63a12,12,0,0,1,2.31-7.24,10.15,10.15,0,0,1,7.22-4.31c.4.39.83.75,1.2,1.17q2.48,2.75,4.9,5.54c.48.55.86.65,1.48.11a16.89,16.89,0,0,1,2.12-1.4l4.29,5.66c-.38,3.13-.75,6.25-1.15,9.37C39,92,38.51,95.28,38.1,98.55S37.32,105,36.94,108.26Z" transform="translate(0 -5.33)"/><path class="cls-6" d="M62.22,108.26H47.72c-.53-4.42-1-8.85-1.6-13.28-.65-5.2-1.33-10.41-2-15.61l4.29-5.66a25.68,25.68,0,0,1,2.21,1.47.8.8,0,0,0,1.32-.1c.76-.87,1.57-1.71,2.33-2.58,1.66-1.91,3.31-3.84,5-5.76,2.61.6,5.27,1.06,7.83,1.84a11.17,11.17,0,0,1,7.77,11l-5.39-.22V75.8H58.65v25.29h3.54Z" transform="translate(0 -5.33)"/><path class="cls-7" d="M26.54,68.29a10.15,10.15,0,0,0-7.22,4.31A12,12,0,0,0,17,79.84c-.16,4.21-.56,8.42-.85,12.63q-.14,1.91-.24,3.81c-.16,3.14-.3,6.28-.46,9.42-.05.86-.15,1.71-.23,2.57H8c.08-1.83.13-3.53.24-5.24s.3-3.13.39-4.69c.26-4.34.46-8.68.72-13a74.6,74.6,0,0,1,.68-7.93c.83-4.8,3.82-7.78,8.47-9.06,2.26-.62,4.58-1.06,6.88-1.58Z" transform="translate(0 -5.33)"/><path class="cls-8" d="M29.7,30.63c0,5-.14,9.92,0,14.87A15.66,15.66,0,0,0,37.5,58.88a12.7,12.7,0,0,0,6.4,2.2,13.27,13.27,0,0,0,6.59-2c.3-.16.58-.34.87-.51,0,.66,0,1.33,0,2a4.52,4.52,0,0,0-.73.26,15.19,15.19,0,0,1-8.47,2.23A50.07,50.07,0,0,1,37,62.42a7.81,7.81,0,0,1-.06.9c-.27,1.29.39,1.85,1.52,2.26,1.86.67,3.67,1.5,5.49,2.26l-1.36.7a.59.59,0,0,0,0,.14.45.45,0,0,1-.2,0,4.67,4.67,0,0,0-.57-.33L33.29,64.9c0-1.8.05-3.61,0-5.41a1.92,1.92,0,0,0-.59-1.34,16.32,16.32,0,0,1-6.61-13.88c0-.29,0-.58-.06-1-.48,0-.92,0-1.36,0a5.29,5.29,0,0,1-5.28-3.16A5.06,5.06,0,0,1,20.5,34a1.73,1.73,0,0,0,.19-.28c1.55-1.28,3.41-1.39,5.33-1.31l.12-1.76Z" transform="translate(0 -5.33)"/><path class="cls-9" d="M44.13,79.37c.66,5.2,1.34,10.41,2,15.61.55,4.43,1.07,8.86,1.6,13.28H36.94c.38-3.23.76-6.47,1.16-9.71S39,92,39.38,88.74c.4-3.12.77-6.24,1.15-9.37Z" transform="translate(0 -5.33)"/><path class="cls-10" d="M29.7,30.63H26.14L26,32.39c-1.92-.08-3.78,0-5.33,1.31,0-4.93-.14-9.86,0-14.78A11.55,11.55,0,0,1,25.59,9.8c0,.22.11.49,0,.66-2,4.18-1.6,8.34,0,12.51a17.28,17.28,0,0,0,4.55,6.46A7,7,0,0,1,31,30.57Z" transform="translate(0 -5.33)"/><path class="cls-7" d="M69.46,97.44a16.52,16.52,0,0,1,6.73,1.31c.15,2.79.29,5.58.47,8.38,0,.82-.13,1.2-1.09,1.18-3.26-.07-6.52,0-9.78,0l0-7.17h3.64Z" transform="translate(0 -5.33)"/><path class="cls-7" d="M33.29,64.9l8.48,3.41a4.67,4.67,0,0,1,.57.33l-6,4.67c-.09.08-.1.27-.14.4a16.89,16.89,0,0,0-2.12,1.4c-.62.54-1,.44-1.48-.11q-2.43-2.79-4.9-5.54c-.37-.42-.8-.78-1.2-1.17l-1.12-1.53Z" transform="translate(0 -5.33)"/><path class="cls-7" d="M42.56,68.54l1.36-.7,7.45-2.94,7.88,1.84c-1.66,1.92-3.31,3.85-5,5.76-.76.87-1.57,1.71-2.33,2.58a.8.8,0,0,1-1.32.1,25.68,25.68,0,0,0-2.21-1.47,6.44,6.44,0,0,0-.74-.9c-1.62-1.35-3.27-2.67-4.91-4Z" transform="translate(0 -5.33)"/><path class="cls-11" d="M58.6,32.37c1.91,0,3.8,0,5.37,1.34,1.5,1.6,2.29,3.41,1.61,5.63a5.43,5.43,0,0,1-5.31,3.9H58.59Z" transform="translate(0 -5.33)"/><path class="cls-4" d="M51.37,64.9l-7.45,2.94c-1.82-.76-3.63-1.59-5.49-2.26-1.13-.41-1.79-1-1.52-2.26a7.81,7.81,0,0,0,.06-.9,50.07,50.07,0,0,0,5.15.66,15.19,15.19,0,0,0,8.47-2.23,4.52,4.52,0,0,1,.73-.26C51.34,62,51.35,63.47,51.37,64.9Z" transform="translate(0 -5.33)"/><path class="cls-12" d="M81.38,49.91c-.1.11-.21.22-.32.32C81.17,50.13,81.28,50,81.38,49.91Z" transform="translate(0 -5.33)"/><path class="cls-12" d="M104,73.16l.33-.33Z" transform="translate(0 -5.33)"/><path class="cls-2" d="M42.77,68.8c1.64,1.34,3.29,2.66,4.91,4a6.44,6.44,0,0,1,.74.9l-4.29,5.66h-3.6l-4.29-5.66c0-.13,0-.32.14-.4l6-4.67a.45.45,0,0,0,.2,0Z" transform="translate(0 -5.33)"/><path class="cls-13" d="M42.77,68.8l-.23-.12a.59.59,0,0,1,0-.14Z" transform="translate(0 -5.33)"/><path class="cls-6" d="M63.13,108.71c1.26,0,2.39-2,3.57-2v1.55h3.65c-.08-.86-.19-1.71-.23-2.57-.17-3.14-.31-6.28-.47-9.42-.06-1.27-.14-2.54-.23-3.81-.29-4.21-.7-8.42-.85-12.63a12,12,0,0,0-2.32-7.24A10.13,10.13,0,0,0,59,68.29c-.41.39-.84.75-1.21,1.17Q55.37,72.21,52.94,75c-.48.55-.87.65-1.48.11a16.89,16.89,0,0,0-2.12-1.4L45,79.37c.39,3.13.76,6.25,1.16,9.37.41,3.27.86,6.54,1.27,9.81s.78,6.48,1.17,9.71H63.13" transform="translate(0 -5.33)"/><path class="cls-7" d="M59,68.29a10.13,10.13,0,0,1,7.21,4.31,12,12,0,0,1,2.32,7.24c.15,4.21.56,8.42.85,12.63.09,1.27.17,2.54.23,3.81.16,3.14.3,6.28.47,9.42,0,.86.15,1.71.23,2.57h7.18c-.08-1.83-.13-3.53-.23-5.24s-.31-3.13-.4-4.69c-.25-4.34-.45-8.68-.72-13a72.07,72.07,0,0,0-.68-7.93c-.82-4.8-3.82-7.78-8.46-9.06-2.27-.62-4.59-1.06-6.88-1.58Z" transform="translate(0 -5.33)"/></g><g class="cls-14"><path d="M78.13,101.22c.1,1.75.19,3.38.29,5,0,.6.11,1.2.12,1.8a1.83,1.83,0,0,1-1.92,2c-.22,0-.45,0-.68,0h-67c-2.11,0-2.69-.6-2.56-2.7q.88-14.52,1.8-29A13.07,13.07,0,0,1,18.48,66.51l13.12-3c0-1.26,0-2.46,0-3.66a1,1,0,0,0-.36-.64,18.12,18.12,0,0,1-6.87-13.88,22.06,22.06,0,0,1-3.52-1.24,7.11,7.11,0,0,1-2.39-10.32,3.28,3.28,0,0,0,.5-1.64c0-4.06,0-8.12,0-12.19A14.44,14.44,0,0,1,33.58,5.34q7.91,0,15.8,0a9.06,9.06,0,0,1,9,6.64,1.61,1.61,0,0,0,.92.89,9.08,9.08,0,0,1,6.59,9c0,3.46,0,6.92,0,10.38a2.21,2.21,0,0,0,.3,1.26,7.24,7.24,0,0,1-5.58,11.63c-.23,1.44-.35,2.9-.69,4.3a17.22,17.22,0,0,1-5.8,9.32,2.18,2.18,0,0,0-.89,2c.07.89,0,1.79,0,2.75,4.13,1,8.17,1.91,12.23,2.81,6.09,1.34,9.89,4.92,11.06,11.14M35.93,76.1l-.63.45C33.43,78,33,78,31.38,76.18c-2-2.25-4-4.49-6-6.75A1.21,1.21,0,0,0,24,68.94c-1.63.45-3.29.75-4.93,1.16a9.59,9.59,0,0,0-7.3,9.06c-.36,6.76-.83,13.51-1.24,20.26-.14,2.31-.27,4.62-.41,7H19V86.67h3.62v19.71H35.42c.21-1.57.41-3.1.6-4.62.87-7.05,1.75-14.09,2.6-21.14a2,2,0,0,0-.26-1.24C37.62,78.29,36.8,77.26,35.93,76.1ZM28,32.42c0,2.24,0,4.34,0,6.44a76.1,76.1,0,0,0,.25,8.55c.88,6.85,7.15,12.08,14.16,12.09S55.92,54.28,56.6,47.36c.49-5.07.22-10.21.27-15.32a.87.87,0,0,0-.36-.61c-2.11-1.29-4.23-2.55-6.4-3.86-3.49,4-8,5.1-13,4.87C34.16,32.31,31.15,32.42,28,32.42Zm34.19-1.64c0-.07.09-.14.09-.2,0-2.9,0-5.79,0-8.68A5.42,5.42,0,0,0,57,16.17a1.83,1.83,0,0,1-1.94-1.9A5.42,5.42,0,0,0,49.28,9H33.83a10.83,10.83,0,0,0-11.25,11.2c0,3.23,0,6.46,0,9.7,0,.31,0,.63.07,1l1.63-.26c.61-1.52.95-1.75,2.61-1.75h12.4a10.29,10.29,0,0,0,8.64-4.28c1-1.29,1.69-1.45,3.06-.63q4.11,2.45,8.21,4.93c.34.21.83.46.92.78C60.44,30.75,61.31,30.73,62.19,30.78ZM72.87,77.66A9.22,9.22,0,0,0,66,70.13c-1.64-.42-3.3-.73-4.93-1.17a1.37,1.37,0,0,0-1.63.54c-2,2.33-4.09,4.62-6.13,6.92-1.25,1.41-2,1.49-3.44.34-.28-.22-.57-.43-.89-.66-.76,1-1.41,1.94-2.13,2.8a2.46,2.46,0,0,0-.58,2c.83,6.38,1.61,12.75,2.41,19.13.26,2.11.53,4.22.8,6.31H74.23M42.65,81.19h-.42l-3.15,25.15H45.8C44.74,97.9,43.7,89.54,42.65,81.19ZM49.59,62a48.24,48.24,0,0,1-7.19,1,48.45,48.45,0,0,1-7.13-1c-.14,1.65-.14,1.65,1.5,2.31s3.11,1.33,4.71,1.86a3.33,3.33,0,0,0,2,0c1.6-.53,3.15-1.23,4.71-1.85S49.85,63.61,49.59,62ZM46,69.06l5.26,4.21,4.81-5.42c-1.14-.27-2.11-.53-3.09-.72A3.62,3.62,0,0,0,51.24,67C49.51,67.59,47.83,68.32,46,69.06Zm-7.19,0C35.61,67.59,32.52,65.93,29,68l4.66,5.23Zm-.08,4.7a24.15,24.15,0,0,0,2.6,3.33,2.19,2.19,0,0,0,2.14.1,26.59,26.59,0,0,0,2.68-3.43C45,72.9,44,72.05,43,71.29a1.08,1.08,0,0,0-1,0C40.88,72,39.88,72.89,38.73,73.81ZM24.35,34.26a3.59,3.59,0,0,0-3.56,3.92,3.4,3.4,0,0,0,3.56,3.12Zm36.18,7.15a3.62,3.62,0,0,0,3.56-3.93,3.4,3.4,0,0,0-3.56-3.12Z" transform="translate(0 -5.33)"/></g><path class="cls-15" d="M33,39.64a5.73,5.73,0,0,1,5.67,0" transform="translate(0 -5.33)"/><path class="cls-15" d="M46.26,39.64a5.73,5.73,0,0,1,5.67,0" transform="translate(0 -5.33)"/><path class="cls-15" d="M48.77,52.49a12,12,0,0,1-11.83,0" transform="translate(0 -5.33)"/><circle cx="35.84" cy="36.33" r="1.35"/><circle cx="49.29" cy="36.33" r="1.35"/><path class="cls-16" d="M42.92,43l1.53,5.86s-1.68,1.44-3.16.77" transform="translate(0 -5.33)"/><polygon class="cls-17" points="42.88 64.79 47.4 70.95 54.63 60.22 50.57 57.66 42.88 64.79"/><polygon class="cls-17" points="42.88 64.79 38.35 70.95 30.98 60.49 35.03 57.66 42.88 64.79"/><path class="cls-17" d="M77,74.62C74,69.28,51.65,63.89,51.65,63.89V64l-.29-.08s.74,7.42-2.7,18c-1.15,3.5-2.43,7.06-3.55,10-.44,1.16-2.24,6-2.24,6s-2.22-4.87-2.66-6c-1.11-3-2.4-6.53-3.54-10C33.23,71.31,34,63.92,34,63.89l-.28.08v-.08S11.3,69.28,8.37,74.62C7.3,76.56,4,95.58,1.85,105.85c-1.5,7,2,12.44,8.36,15.71l4.28,2.18H70.32l4.57-2.25c6.52-3.22,10.09-8.71,8.57-15.82C81.26,95.46,78,76.54,77,74.62Z" transform="translate(0 -5.33)"/><rect class="cls-18" x="19.4" y="114.83" width="46" height="2.46"/><path class="cls-19" d="M68.1,79.42H16.7a2.21,2.21,0,0,0-2.21,2.22v37a2.22,2.22,0,0,0,2.21,2.22H68.1a2.23,2.23,0,0,0,2.22-2.22v-37A2.22,2.22,0,0,0,68.1,79.42Z" transform="translate(0 -5.33)"/><rect class="cls-19" x="15.36" y="116.58" width="54.07" height="2.9"/><path class="cls-20" d="M44.52,100.14A2.12,2.12,0,1,1,42.4,98,2.12,2.12,0,0,1,44.52,100.14Z" transform="translate(0 -5.33)"/></g></g></svg>