<svg xmlns="http://www.w3.org/2000/svg" viewBox="0 0 60 51.98"><defs><style>.cls-1{fill:#fff;}.cls-2{fill:#e0e0e0;}.cls-3{fill:#2d4375;}.cls-4{fill:#3a9e32;}.cls-5{fill:#393c41;}.cls-6{fill:#2a2d30;}.cls-7{fill:#4084c0;}.cls-8{fill:#59a1d7;}.cls-9{fill:#1e2d4f;}.cls-10{fill:#fffbff;}.cls-11{font-size:4.97px;fill:#ff4140;font-family:MyriadPro-Bold, Myriad Pro;font-weight:700;}.cls-12{letter-spacing:0.01em;}.cls-13{letter-spacing:-0.04em;}.cls-14{letter-spacing:-0.02em;}</style></defs><g id="Layer_2" data-name="Layer 2"><g id="Layer_1-2" data-name="Layer 1"><path class="cls-1" d="M21.05,0a5,5,0,0,0-5,5V45.76a5,5,0,0,0,5,5H35.13V0Z"/><path class="cls-1" d="M49.21,0H35.13V50.73H49.21a5,5,0,0,0,5-5V5A5,5,0,0,0,49.21,0Z"/><path class="cls-1" d="M16.12,46.4a5,5,0,0,0,4.93,4.33H49.21a5,5,0,0,0,4.93-4.33Z"/><path class="cls-2" d="M38.85,0H15a5,5,0,0,0-4.93,4.33H44.27A5,5,0,0,1,49.2,0Z"/><path class="cls-2" d="M31.19,50.73H55.07A5,5,0,0,0,60,46.4H25.77a5,5,0,0,1-4.93,4.33Z"/><rect class="cls-3" x="19.23" y="13.02" width="31.58" height="4.1"/><rect class="cls-3" x="19.23" y="20.19" width="31.58" height="4.1"/><rect class="cls-3" x="19.23" y="27.36" width="31.58" height="4.1"/><path class="cls-4" d="M45.11,35.61a3.32,3.32,0,1,0,3.61,3A3.31,3.31,0,0,0,45.11,35.61Z"/><path class="cls-4" d="M50.29,38.88a4.87,4.87,0,0,1-8.24,3.56l-.61.27a5.49,5.49,0,0,0,9.46-4.1Z"/><path class="cls-4" d="M40.54,39a4.87,4.87,0,0,1,8.24-3.57l.61-.27a5.49,5.49,0,0,0-9.46,4.1Z"/><rect class="cls-4" x="38.52" y="37.58" width="13.79" height="2.66" transform="translate(-11.73 21.26) rotate(-23.42)"/><path class="cls-1" d="M40.15,40.25l.41-.18,1.2,1.38-.37.16-.25-.27-.48.21,0,.36-.37.17Zm.78.81-.37-.44,0,.58Z"/><path class="cls-1" d="M41.2,39.79l.7-.3c.21-.09.49-.15.68.3s0,.66-.24.73a2,2,0,0,1-.36.1l.27.62-.36.16Zm1,.44c.09,0,.11-.12,0-.28s-.14-.17-.22-.14l-.31.14.18.41Z"/><path class="cls-1" d="M42.54,39.21l.7-.3c.21-.09.49-.14.68.3s0,.66-.24.73l-.36.11.27.61-.36.16Zm1,.44c.09,0,.11-.12,0-.28s-.14-.17-.22-.14l-.31.14.18.41Z"/><path class="cls-1" d="M43.87,38.63l.71-.3c.27-.12.51-.09.68.3s.05.51,0,.59l.56.49-.41.18-.49-.49-.22.06.27.62-.36.16Zm1,.42c.11,0,.12-.1,0-.26s-.13-.18-.22-.13l-.31.13.17.39Z"/><path class="cls-1" d="M45.81,37.78c.38-.17.69-.21,1,.54s.09.91-.3,1.08-.69.22-1-.51S45.44,37.94,45.81,37.78Zm.56,1.3c.23-.1.26-.21.09-.6s-.28-.47-.51-.37-.27.16-.07.62S46.13,39.18,46.37,39.08Z"/><path class="cls-1" d="M46.9,37.32l.82,1L47.56,37l.38-.17.18,1.83-.42.18-1.18-1.4Z"/><path class="cls-1" d="M48.15,37.2a.37.37,0,0,1,.22-.52s.52-.21.73-.27l.13.3-.62.27c-.11.05-.08.11-.06.17l.08.18.63-.25.13.3-.61.29.08.18c0,.12.12.08.18.06l.59-.26.13.3c-.16.1-.67.33-.67.33a.35.35,0,0,1-.54-.16Z"/><path class="cls-1" d="M49.25,36.3,50,36c.45-.19.72.15.9.57s.18.87-.2,1l-.72.31Zm1.24,1c.16-.07.15-.27,0-.58s-.3-.46-.44-.4l-.32.14.43,1Z"/><path class="cls-5" d="M8.48,44.09v5.64A2.28,2.28,0,0,1,6.24,52H4.36a2.27,2.27,0,0,1-2.27-2.27V44.09a2.27,2.27,0,0,1,2.27-2.27H6.21A2.27,2.27,0,0,1,8.48,44.09Z"/><rect class="cls-6" x="5.61" y="47.3" width="0.35" height="4.68"/><rect class="cls-6" x="4.62" y="47.3" width="0.35" height="4.68"/><polygon class="cls-6" points="8.48 47.68 8.48 48.19 5.96 50.73 5.81 50.88 5.81 50.37 5.96 50.22 8.48 47.68"/><polygon class="cls-6" points="8.48 49.22 8.48 49.73 6.24 51.98 5.81 51.98 5.81 51.91 5.96 51.76 8.48 49.22"/><polygon class="cls-6" points="8.48 46.14 8.48 46.65 5.96 49.19 5.81 49.34 5.81 48.83 5.96 48.68 8.48 46.14"/><polygon class="cls-6" points="2.09 47.68 2.09 48.19 4.62 50.73 4.76 50.88 4.76 50.37 4.62 50.22 2.09 47.68"/><polygon class="cls-6" points="2.09 49.22 2.09 49.73 4.33 51.98 4.76 51.98 4.76 51.91 4.62 51.76 2.09 49.22"/><polygon class="cls-6" points="2.09 46.14 2.09 46.65 4.62 49.19 4.76 49.34 4.76 48.83 4.62 48.68 2.09 46.14"/><path class="cls-5" d="M35.9,44.09v5.64A2.27,2.27,0,0,1,33.67,52H31.79a2.27,2.27,0,0,1-2.27-2.27V44.09a2.27,2.27,0,0,1,2.27-2.27h1.84A2.27,2.27,0,0,1,35.9,44.09Z"/><rect class="cls-6" x="33.03" y="47.3" width="0.35" height="4.68"/><rect class="cls-6" x="32.04" y="47.3" width="0.35" height="4.68"/><polygon class="cls-6" points="35.9 47.68 35.9 48.19 33.38 50.73 33.23 50.88 33.23 50.37 33.38 50.22 35.9 47.68"/><polygon class="cls-6" points="35.9 49.22 35.9 49.73 33.66 51.98 33.23 51.98 33.23 51.91 33.38 51.76 35.9 49.22"/><polygon class="cls-6" points="35.9 46.14 35.9 46.65 33.38 49.19 33.23 49.34 33.23 48.83 33.38 48.68 35.9 46.14"/><polygon class="cls-6" points="29.52 47.68 29.52 48.19 32.04 50.73 32.19 50.88 32.19 50.37 32.04 50.22 29.52 47.68"/><polygon class="cls-6" points="29.52 49.22 29.52 49.73 31.76 51.98 32.19 51.98 32.19 51.91 32.04 51.76 29.52 49.22"/><polygon class="cls-6" points="29.52 46.14 29.52 46.65 32.04 49.19 32.19 49.34 32.19 48.83 32.04 48.68 29.52 46.14"/><path class="cls-6" d="M35.93,29.92H33.58A1.28,1.28,0,0,0,32.3,31.2v.08l-1.78,1.34.29.39,1.63-1.23a1.25,1.25,0,0,0,1.14.7h2.35a1.28,1.28,0,1,0,0-2.56Z"/><path class="cls-6" d="M2,29.92H4.31A1.28,1.28,0,0,1,5.59,31.2a.22.22,0,0,1,0,.08l1.78,1.35L7.07,33,5.45,31.78a1.27,1.27,0,0,1-1.14.7H2a1.28,1.28,0,1,1,0-2.56Z"/><path class="cls-7" d="M38,39.06a2.83,2.83,0,0,0-.6-1.47c-1-1.22-2.09-2.43-3.16-3.62a2.11,2.11,0,0,0-1.39-.65H5.21A2.14,2.14,0,0,0,3.82,34Q2.22,35.74.65,37.57A2.83,2.83,0,0,0,.05,39c0,.48,0,.73,0,1.22H0a57.28,57.28,0,0,0,.4,6.93,2.68,2.68,0,0,0,2.69,2H34.9a2.69,2.69,0,0,0,2.69-2l.1-.76h0A42.54,42.54,0,0,0,38,39.06Z"/><path class="cls-8" d="M30.56,24.32s0,0,0,0c0-.83-5.23-1.5-11.67-1.51h-.1v11H33.87Z"/><path class="cls-8" d="M7.23,24.26s0,0,0,0L4,33.78H18.8v-11C12.4,22.78,7.23,23.44,7.23,24.26Z"/><path class="cls-9" d="M29.85,24.6c-.9-.44-4.94-1-10.9-1H18.8c-5.88,0-9.87.56-10.75,1L5.5,32.49H32.39Z"/><rect class="cls-6" x="12.29" y="40.03" width="13.43" height="4.75" rx="0.71"/><path class="cls-8" d="M5.65,35.84h0V40H5.26v1.79H9.72V40A4.13,4.13,0,0,0,5.65,35.84Z"/><path class="cls-8" d="M4,43.83a2.52,2.52,0,0,1-2.52-2.52v-.08A2.52,2.52,0,0,1,4,38.71h.07c1.45.43,6.17,1.94,5.89,3.21a2,2,0,0,1-2.17,1.9Z"/><path class="cls-10" d="M9.71,41.88c-.24,1.11-.78,1.71-1.94,1.71H4A2.28,2.28,0,0,1,1.7,41.31v-.08A2.29,2.29,0,0,1,4,38.94S10,40.72,9.71,41.88Z"/><path class="cls-8" d="M32.36,35.84h0V40h.36v1.79H28.29V40A4.14,4.14,0,0,1,32.36,35.84Z"/><path class="cls-8" d="M34,43.83a2.52,2.52,0,0,0,2.52-2.52v-.08A2.52,2.52,0,0,0,34,38.71H34c-1.45.43-6.16,1.94-5.89,3.21a2,2,0,0,0,2.17,1.9Z"/><path class="cls-10" d="M28.3,41.88c.24,1.11.78,1.71,1.94,1.71H34a2.28,2.28,0,0,0,2.28-2.28v-.08A2.29,2.29,0,0,0,34,38.94S28.05,40.72,28.3,41.88Z"/><polygon class="cls-9" points="6.2 30.31 5.5 32.49 18.8 32.5 32.39 32.51 30.43 26.42 6.2 30.31"/><path class="cls-3" d="M29.85,24.6c-.9-.44-4.94-1-10.9-1H18.8c-5.88,0-9.87.56-10.75,1L6.2,30.31l24.23-3.89Z"/><path class="cls-6" d="M31.49,45.25l-.6.89H7.12l-.6-.89H.2c0,.64.11,1.29.19,1.94a2.69,2.69,0,0,0,2.69,2H34.89a2.68,2.68,0,0,0,2.69-2l.1-.76h0c0-.4.1-.81.13-1.21Z"/><rect class="cls-10" x="13.02" y="46.54" width="11.97" height="2.19" rx="0.6"/><text class="cls-11" transform="translate(19.97 9.65)"><tspan class="cls-12">C</tspan><tspan x="3.01" y="0">AR </tspan><tspan class="cls-13" x="10.23" y="0">L</tspan><tspan class="cls-14" x="12.58" y="0">O</tspan><tspan x="16.07" y="0">ANS</tspan></text></g></g></svg>