<svg xmlns="http://www.w3.org/2000/svg" viewBox="0 0 142.36 123.33"><defs><style>.cls-1{fill:#fff;}.cls-2{fill:#e0e0e0;}.cls-3{fill:#2d4375;}.cls-4{fill:#3a9e32;}.cls-5{fill:#393c41;}.cls-6{fill:#2a2d30;}.cls-7{fill:#4084c0;}.cls-8{fill:#59a1d7;}.cls-9{fill:#1e2d4f;}.cls-10{fill:#fffbff;}.cls-11{font-size:11.8px;fill:#ff4140;font-family:MyriadPro-Bold, Myriad Pro;font-weight:700;}.cls-12{letter-spacing:0.01em;}.cls-13{letter-spacing:-0.04em;}.cls-14{letter-spacing:-0.02em;}</style></defs><g id="Layer_2" data-name="Layer 2"><g id="Layer_1-2" data-name="Layer 1"><path class="cls-1" d="M50,0a11.8,11.8,0,0,0-11.8,11.8v96.77A11.8,11.8,0,0,0,50,120.37h33.4V0Z"/><path class="cls-1" d="M116.76,0H83.35V120.37h33.41a11.8,11.8,0,0,0,11.8-11.8V11.8A11.8,11.8,0,0,0,116.76,0Z"/><path class="cls-1" d="M38.25,110.08A11.8,11.8,0,0,0,50,120.37h66.81a11.8,11.8,0,0,0,11.7-10.29Z"/><path class="cls-2" d="M92.19,0H35.54a11.79,11.79,0,0,0-11.7,10.28H105A11.8,11.8,0,0,1,116.74,0Z"/><path class="cls-2" d="M74,120.37h56.64a11.81,11.81,0,0,0,11.71-10.29H61.15a11.8,11.8,0,0,1-11.7,10.29Z"/><rect class="cls-3" x="45.63" y="30.9" width="74.92" height="9.74"/><rect class="cls-3" x="45.63" y="47.91" width="74.92" height="9.74"/><rect class="cls-3" x="45.63" y="64.91" width="74.92" height="9.74"/><path class="cls-4" d="M107,84.48a7.88,7.88,0,1,0,8.57,7.13A7.9,7.9,0,0,0,107,84.48Z"/><path class="cls-4" d="M119.31,92.24a11.55,11.55,0,0,1-19.54,8.46l-1.45.63a13,13,0,0,0,22.44-9.72Z"/><path class="cls-4" d="M96.19,92.43A11.56,11.56,0,0,1,115.73,84l1.45-.63a13,13,0,0,0-22.44,9.72Z"/><rect class="cls-4" x="91.39" y="89.17" width="32.72" height="6.32" transform="translate(-27.82 50.44) rotate(-23.42)"/><path class="cls-1" d="M95.25,95.49l1-.43,2.85,3.29-.89.38-.59-.65-1.14.49.08.88-.89.38Zm1.86,1.93-.88-1,.12,1.38Z"/><path class="cls-1" d="M97.74,94.41l1.67-.72c.5-.22,1.17-.34,1.62.72s-.1,1.56-.56,1.73a8.89,8.89,0,0,1-.86.25l.64,1.46-.86.36Zm2.33,1c.22-.09.27-.28.11-.65s-.35-.4-.53-.33l-.73.32.42,1Z"/><path class="cls-1" d="M100.92,93l1.66-.72c.5-.21,1.17-.34,1.63.72s-.1,1.57-.57,1.73a7.16,7.16,0,0,1-.85.25l.63,1.46-.85.37Zm2.33,1c.21-.09.27-.27.11-.64s-.35-.41-.54-.33l-.73.32.43,1Z"/><path class="cls-1" d="M104.09,91.66l1.69-.73c.63-.27,1.21-.2,1.61.73s.1,1.2-.1,1.38l1.33,1.18-1,.41-1.18-1.15-.52.14.64,1.47-.86.37Zm2.31,1c.26-.11.29-.24.13-.62s-.3-.42-.53-.32l-.73.32.41.94Z"/><path class="cls-1" d="M108.7,89.63c.89-.38,1.62-.49,2.39,1.29s.21,2.16-.73,2.57-1.62.5-2.37-1.23S107.82,90,108.7,89.63ZM110,92.71c.54-.23.61-.49.21-1.42s-.68-1.11-1.21-.88-.66.4-.19,1.48C109.25,92.82,109.44,93,110,92.71Z"/><path class="cls-1" d="M111.28,88.54l1.93,2.4-.37-3.07.9-.39.44,4.33-1,.43-2.79-3.31Z"/><path class="cls-1" d="M114.24,88.25a.84.84,0,0,1,.53-1.21s1.23-.52,1.72-.65l.31.71-1.46.63c-.27.12-.2.27-.14.41l.19.43,1.5-.58.3.7-1.45.69.18.43c.12.27.29.19.44.13l1.4-.61.31.71c-.38.23-1.6.79-1.6.79a.86.86,0,0,1-1.29-.39Z"/><path class="cls-1" d="M116.85,86.13l1.69-.73c1.07-.46,1.7.35,2.14,1.35.52,1.22.41,2.07-.49,2.46l-1.69.73Zm2.94,2.37c.39-.17.36-.63,0-1.38-.42-1-.71-1.09-1-1l-.76.33,1,2.33Z"/><path class="cls-5" d="M20.12,104.62V118a5.38,5.38,0,0,1-5.31,5.33H10.36A5.38,5.38,0,0,1,5,118V104.62a5.39,5.39,0,0,1,5.39-5.39h4.37A5.39,5.39,0,0,1,20.12,104.62Z"/><rect class="cls-6" x="13.3" y="112.24" width="0.83" height="11.1"/><rect class="cls-6" x="10.95" y="112.24" width="0.83" height="11.1"/><polygon class="cls-6" points="20.12 113.13 20.12 114.34 14.13 120.36 13.78 120.71 13.78 119.51 14.13 119.16 20.12 113.13"/><polygon class="cls-6" points="20.12 116.79 20.12 118 14.81 123.33 13.78 123.33 13.78 123.16 14.13 122.81 20.12 116.79"/><polygon class="cls-6" points="20.12 109.48 20.12 110.68 14.13 116.7 13.78 117.05 13.78 115.85 14.13 115.5 20.12 109.48"/><polygon class="cls-6" points="4.97 113.13 4.97 114.34 10.95 120.36 11.3 120.71 11.3 119.51 10.95 119.16 4.97 113.13"/><polygon class="cls-6" points="4.97 116.79 4.97 118 10.28 123.33 11.3 123.33 11.3 123.16 10.95 122.81 4.97 116.79"/><polygon class="cls-6" points="4.97 109.48 4.97 110.68 10.95 116.7 11.3 117.05 11.3 115.85 10.95 115.5 4.97 109.48"/><path class="cls-5" d="M85.18,104.62V118a5.38,5.38,0,0,1-5.31,5.33H75.42A5.38,5.38,0,0,1,70,118V104.62a5.39,5.39,0,0,1,5.39-5.39H79.8A5.39,5.39,0,0,1,85.18,104.62Z"/><rect class="cls-6" x="78.37" y="112.24" width="0.83" height="11.1"/><rect class="cls-6" x="76.02" y="112.24" width="0.83" height="11.1"/><polygon class="cls-6" points="85.18 113.13 85.18 114.34 79.2 120.36 78.85 120.71 78.85 119.51 79.2 119.16 85.18 113.13"/><polygon class="cls-6" points="85.18 116.79 85.18 118 79.87 123.33 78.85 123.33 78.85 123.16 79.2 122.81 85.18 116.79"/><polygon class="cls-6" points="85.18 109.48 85.18 110.68 79.2 116.7 78.85 117.05 78.85 115.85 79.2 115.5 85.18 109.48"/><polygon class="cls-6" points="70.03 113.13 70.03 114.34 76.02 120.36 76.37 120.71 76.37 119.51 76.02 119.16 70.03 113.13"/><polygon class="cls-6" points="70.03 116.79 70.03 118 75.34 123.33 76.37 123.33 76.37 123.16 76.02 122.81 70.03 116.79"/><polygon class="cls-6" points="70.03 109.48 70.03 110.68 76.02 116.7 76.37 117.05 76.37 115.85 76.02 115.5 70.03 109.48"/><path class="cls-6" d="M85.25,71H79.66a3,3,0,0,0-3,3c0,.07,0,.13,0,.19L72.42,77.4l.69.92L77,75.4a3,3,0,0,0,2.69,1.67h5.59a3,3,0,0,0,0-6.08Z"/><path class="cls-6" d="M4.64,71h5.59a3.05,3.05,0,0,1,3,3c0,.06,0,.12,0,.18l4.22,3.2-.69.91-3.86-2.91a3,3,0,0,1-2.69,1.66H4.64a3,3,0,1,1,0-6.08Z"/><path class="cls-7" d="M90.05,92.67a6.86,6.86,0,0,0-1.42-3.48c-2.46-2.9-5-5.76-7.5-8.6a5.13,5.13,0,0,0-3.3-1.53L44.62,79,12.36,79a5.15,5.15,0,0,0-3.31,1.53q-3.81,4.24-7.51,8.59A7,7,0,0,0,.11,92.62C.05,93.78,0,94.35,0,95.51H0A137,137,0,0,0,1,112c.37,2.64,3.3,4.79,6.38,4.79l37.29,0,38.17,0c3.08,0,6-2.15,6.39-4.79.11-.71.15-1.07.24-1.79h0A102,102,0,0,0,90.05,92.67Z"/><path class="cls-8" d="M72.5,57.7a.44.44,0,0,0,0-.1c0-2-12.39-3.56-27.68-3.56H44.6V80.17l35.76,0Z"/><path class="cls-8" d="M17.16,57.57a.29.29,0,0,0,0,.09L9.53,80.15l35.07,0V54C29.42,54,17.16,55.62,17.16,57.57Z"/><path class="cls-9" d="M70.82,58.37C68.7,57.32,59.09,56,45,56H44.6c-13.94,0-23.4,1.34-25.5,2.38L13.05,77.09l31.55,0,32.25,0Z"/><rect class="cls-6" x="29.17" y="94.97" width="31.85" height="11.27" rx="1.69"/><path class="cls-8" d="M13.4,85h-.07V95h-.86v4.26H23.05V95A9.8,9.8,0,0,0,13.4,85Z"/><path class="cls-8" d="M9.45,104a6,6,0,0,1-6-6v-.19a6,6,0,0,1,6-6h.08l.08,0c3.44,1,14.63,4.61,14,7.62S21.29,104,18.43,104Z"/><path class="cls-10" d="M23,99.36c-.57,2.63-1.85,4.07-4.61,4.07h-9A5.42,5.42,0,0,1,4,98v-.19A5.42,5.42,0,0,1,9.45,92.4S23.63,96.62,23,99.36Z"/><path class="cls-8" d="M76.78,85h.07V95h.86v4.26H67.13V95A9.8,9.8,0,0,1,76.78,85Z"/><path class="cls-8" d="M80.74,104a6,6,0,0,0,6-6v-.19a6,6,0,0,0-6-6h-.08l-.08,0c-3.45,1-14.63,4.61-14,7.62S68.9,104,71.76,104Z"/><path class="cls-10" d="M67.15,99.36c.56,2.63,1.85,4.07,4.61,4.07h9A5.42,5.42,0,0,0,86.16,98v-.19a5.42,5.42,0,0,0-5.42-5.42S66.56,96.62,67.15,99.36Z"/><polygon class="cls-9" points="14.72 71.91 13.05 77.09 44.6 77.11 76.85 77.13 72.2 62.69 14.72 71.91"/><path class="cls-3" d="M70.82,58.37C68.7,57.32,59.09,56,45,56H44.6c-13.94,0-23.4,1.34-25.5,2.38L14.72,71.91,72.2,62.69Z"/><path class="cls-6" d="M74.71,107.35l-1.42,2.13H16.9l-1.42-2.13H.47c.13,1.54.28,3.08.46,4.62.37,2.64,3.31,4.79,6.38,4.79l37.29,0,38.18,0c3.07,0,6-2.15,6.39-4.79.1-.71.15-1.07.23-1.79h0c.12-1,.22-1.92.31-2.88Z"/><rect class="cls-10" x="30.89" y="110.43" width="28.4" height="5.19" rx="1.43"/><text class="cls-11" transform="translate(47.37 22.89)"><tspan class="cls-12">C</tspan><tspan x="7.14" y="0">AR </tspan><tspan class="cls-13" x="24.26" y="0">L</tspan><tspan class="cls-14" x="29.84" y="0">O</tspan><tspan x="38.12" y="0">ANS</tspan></text></g></g></svg>