<svg xmlns="http://www.w3.org/2000/svg" xmlns:xlink="http://www.w3.org/1999/xlink" viewBox="0 0 99.57 109.03"><defs><style>.cls-1,.cls-10,.cls-11{fill:none;}.cls-2{fill:#fde1d5;}.cls-12,.cls-14,.cls-3{fill:#4084c0;}.cls-13,.cls-4{fill:#59a1d7;}.cls-5{fill:#ecb9ae;}.cls-6{fill:#ecb8ae;}.cls-7{fill:#e7b644;}.cls-8{fill:#b5b4b4;}.cls-9{clip-path:url(#clip-path);}.cls-10,.cls-11,.cls-14{stroke:#000;stroke-miterlimit:10;}.cls-10{stroke-linecap:round;}.cls-12,.cls-13,.cls-14{fill-rule:evenodd;}.cls-14{stroke-width:2px;}</style><clipPath id="clip-path" transform="translate(-10.65)"><path class="cls-1" d="M71.71,46.85s6.84-14.6-4.52-17.18l-3.86-7.18-5.49-3.63-21.51.63L29.76,29.6l-5,2.36-7,6.28L29.78,56.67,33.9,59.6V61H7.44L0,100.05l13.44,16.11,22.67-1.22,53.33-.67L89,105.36l-48.6,0,.73-27.84V75.6l7.22-5.47,10.09,7.69-1.49,26,39.72,3.42Z"/></clipPath></defs><g id="Layer_2" data-name="Layer 2"><g id="Layer_1-2" data-name="Layer 1"><path class="cls-2" d="M64.5,42.21a18,18,0,0,1-1.17,8,16,16,0,0,1-6,7.32c-.29.17-.58.36-.88.51a13.15,13.15,0,0,1-6.58,2,12.64,12.64,0,0,1-6.4-2.2,15.62,15.62,0,0,1-7.78-13.39c-.16-4.95,0-9.91,0-14.87L37,29.54c2.9,0,5.79.08,8.68,0A11.68,11.68,0,0,0,53,26.81c1-.78,1.87-1.6,2.88-2.46,2.17,1.3,4.57,2.84,7.07,4.2,1.21.66,1.84,1.42,1.59,2.8C64.51,35,64.51,38.59,64.5,42.21Z" transform="translate(-10.65)"/><path class="cls-3" d="M62.85,107.24H28.36V85.69H24.79v21.55H21.15c.07-.85.18-1.71.22-2.56.17-3.14.31-6.28.47-9.42.06-1.27.14-2.54.23-3.81.29-4.21.7-8.42.85-12.64a12.05,12.05,0,0,1,2.32-7.24,10.15,10.15,0,0,1,7.21-4.3c.41.38.84.75,1.21,1.16q2.46,2.76,4.89,5.54c.48.56.87.66,1.49.11s9.09-6.8,9.8-7.26c1.43,1.89,8.16,6.87,9.59,8.75-.38,3.13-1.76,7.8-2.15,10.92-.42,3.27-.31,9.51-.72,12.79S63.24,104,62.85,107.24Z" transform="translate(-10.65)"/><path class="cls-3" d="M68.13,107.24H53.64c-.53-4.43-1-8.86-1.61-13.28-.65-5.21-1.32-10.41-2-15.61l4.29-5.66a23.54,23.54,0,0,1,2.21,1.47.79.79,0,0,0,1.31-.11c.77-.87,1.57-1.7,2.33-2.58,1.67-1.91,3.32-3.83,5-5.75,2.62.6,5.28,1,7.84,1.83a11.19,11.19,0,0,1,7.77,11l-5.4-.21V74.77H64.57v25.29H68.1Z" transform="translate(-10.65)"/><path class="cls-4" d="M32.45,67.27a10.15,10.15,0,0,0-7.21,4.3,12.05,12.05,0,0,0-2.32,7.24c-.15,4.22-.56,8.43-.85,12.64-.09,1.27-.17,2.54-.23,3.81-.16,3.14-.3,6.28-.47,9.42,0,.85-.15,1.71-.22,2.56H14c.08-1.82.13-3.53.24-5.23s.3-3.13.39-4.7c.25-4.33.45-8.67.72-13A74.83,74.83,0,0,1,16,76.37c.82-4.79,3.82-7.77,8.46-9.05,2.27-.63,4.59-1.06,6.89-1.59Z" transform="translate(-10.65)"/><path class="cls-5" d="M35.61,29.6c0,5-.13,9.92,0,14.87a15.62,15.62,0,0,0,7.78,13.39,12.64,12.64,0,0,0,6.4,2.2,13.15,13.15,0,0,0,6.58-2c.3-.15.59-.34.88-.51,0,.67,0,1.33,0,2a3.32,3.32,0,0,0-.73.26A15.28,15.28,0,0,1,48,62.06c-1.7-.06-3.39-.43-5.16-.66a4.85,4.85,0,0,1-.06.89c-.27,1.3.39,1.85,1.53,2.26,1.86.68,3.66,1.51,5.49,2.27l-1.36.69,0,.14a.35.35,0,0,1-.2,0,5.36,5.36,0,0,0-.57-.34l-8.48-3.4c0-1.81,0-3.61,0-5.42a2,2,0,0,0-.59-1.33A16.32,16.32,0,0,1,32,43.25c0-.29,0-.59-.07-1-.48,0-.92,0-1.35,0a5.3,5.3,0,0,1-5.28-3.16A5.06,5.06,0,0,1,26.42,33a3.15,3.15,0,0,0,.19-.27c1.55-1.28,3.41-1.4,5.32-1.32l.13-1.76Z" transform="translate(-10.65)"/><path class="cls-4" d="M75.38,96.42a16.33,16.33,0,0,1,6.72,1.3c.16,2.8.3,5.59.47,8.38.06.83-.13,1.2-1.08,1.18-3.26-.07-6.52,0-9.78,0l0-7.18h3.64Z" transform="translate(-10.65)"/><path class="cls-4" d="M39.2,63.88l8.48,3.4a5.36,5.36,0,0,1,.57.34c-2,1.55-4,3.1-6,4.67-.1.07-.1.26-.15.4A17.09,17.09,0,0,0,40,74.08c-.62.55-1,.45-1.49-.11q-2.43-2.77-4.89-5.54c-.37-.41-.8-.78-1.21-1.16l-1.11-1.54Z" transform="translate(-10.65)"/><path class="cls-4" d="M48.48,67.51l1.36-.69,7.45-2.94,7.87,1.84c-1.65,1.92-3.3,3.84-5,5.75-.76.88-1.56,1.71-2.33,2.58a.79.79,0,0,1-1.31.11,23.54,23.54,0,0,0-2.21-1.47,5.91,5.91,0,0,0-.74-.9c-1.63-1.35-3.27-2.68-4.91-4Z" transform="translate(-10.65)"/><path class="cls-6" d="M64.52,31.35c1.91,0,3.8,0,5.37,1.33,1.5,1.6,2.29,3.41,1.6,5.63a5.4,5.4,0,0,1-5.3,3.9H64.5Z" transform="translate(-10.65)"/><path class="cls-2" d="M57.29,63.88l-7.45,2.94c-1.83-.76-3.63-1.59-5.49-2.27-1.14-.41-1.8-1-1.53-2.26a4.85,4.85,0,0,0,.06-.89c1.77.23,3.46.6,5.16.66a15.28,15.28,0,0,0,8.47-2.23,3.32,3.32,0,0,1,.73-.26C57.25,61,57.27,62.44,57.29,63.88Z" transform="translate(-10.65)"/><path class="cls-7" d="M87.3,48.88l-.32.33Z" transform="translate(-10.65)"/><path class="cls-7" d="M109.89,72.13l.33-.32Z" transform="translate(-10.65)"/><path class="cls-8" d="M48.69,67.78l-.24-.13,0-.14Z" transform="translate(-10.65)"/><path class="cls-3" d="M69.05,107.69c1.26,0,2.39-2,3.57-2v1.55h3.64c-.08-.85-.18-1.71-.23-2.56-.16-3.14-.3-6.28-.46-9.42-.07-1.27-.15-2.54-.23-3.81-.3-4.21-.7-8.42-.86-12.64a12,12,0,0,0-2.31-7.24A10.15,10.15,0,0,0,65,67.27c-.4.38-.83.75-1.2,1.16-1.64,1.84-3.28,3.69-4.9,5.54-.48.56-.86.66-1.48.11a18,18,0,0,0-2.12-1.39L51,78.35c.38,3.12.76,6.25,1.15,9.37s.87,6.54,1.28,9.81.78,6.47,1.16,9.71h14.5" transform="translate(-10.65)"/><path class="cls-4" d="M65,67.27a10.15,10.15,0,0,1,7.22,4.3,12,12,0,0,1,2.31,7.24c.16,4.22.56,8.43.86,12.64.08,1.27.16,2.54.23,3.81.16,3.14.3,6.28.46,9.42,0,.85.15,1.71.23,2.56h7.19c-.08-1.82-.13-3.53-.24-5.23s-.3-3.13-.39-4.7c-.26-4.33-.45-8.67-.72-13a74.83,74.83,0,0,0-.68-7.93c-.83-4.79-3.82-7.77-8.47-9.05-2.26-.63-4.58-1.06-6.88-1.59Z" transform="translate(-10.65)"/><g class="cls-9"><path d="M84,100.2c.1,1.75.2,3.38.3,5,0,.6.11,1.2.11,1.8a1.81,1.81,0,0,1-1.91,2c-.23,0-.45,0-.68,0h-67c-2.11,0-2.69-.6-2.56-2.71.6-9.68,1.18-19.36,1.81-29A13.08,13.08,0,0,1,24.4,65.48l13.12-3c0-1.26,0-2.45,0-3.65a.94.94,0,0,0-.35-.64,18.18,18.18,0,0,1-6.88-13.89,22.28,22.28,0,0,1-3.51-1.23,7.12,7.12,0,0,1-2.4-10.33,3,3,0,0,0,.5-1.64c0-4.06,0-8.12,0-12.18A14.45,14.45,0,0,1,39.5,4.31H55.29a9.07,9.07,0,0,1,9,6.64,1.61,1.61,0,0,0,.92.89,9.07,9.07,0,0,1,6.59,9c0,3.46,0,6.92,0,10.38a2.18,2.18,0,0,0,.29,1.26,7.25,7.25,0,0,1-5.57,11.64c-.23,1.43-.35,2.89-.7,4.3a17.34,17.34,0,0,1-5.79,9.32,2.17,2.17,0,0,0-.9,2c.07.89,0,1.8,0,2.76,4.12.95,8.17,1.91,12.23,2.8,6.09,1.35,9.89,4.92,11.06,11.15M41.85,75.08c-.27.19-.46.31-.63.45-1.88,1.44-2.36,1.39-3.93-.38-2-2.25-4-4.49-6-6.75a1.23,1.23,0,0,0-1.44-.49c-1.62.45-3.29.76-4.93,1.17a9.57,9.57,0,0,0-7.29,9.06c-.36,6.75-.83,13.5-1.25,20.26-.14,2.3-.27,4.61-.4,7h8.9V85.64h3.63v19.72H41.34m-7.43-74c0,2.25,0,4.35,0,6.45a73.56,73.56,0,0,0,.25,8.54c.88,6.85,7.14,12.08,14.15,12.09s13.51-5.22,14.19-12.14c.5-5.06.22-10.2.27-15.31a.85.85,0,0,0-.36-.61c-2.1-1.29-4.22-2.56-6.39-3.86-3.5,4-8,5.09-13,4.87C40.07,31.28,37.07,31.39,33.91,31.39Zm34.2-1.63c0-.07.09-.14.09-.21,0-2.89,0-5.79,0-8.68a5.42,5.42,0,0,0-5.28-5.73A1.84,1.84,0,0,1,61,13.25,5.41,5.41,0,0,0,55.2,7.92H39.75A10.83,10.83,0,0,0,28.5,19.12q0,4.86,0,9.7c0,.32,0,.63.07,1l1.63-.27c.6-1.52.94-1.75,2.6-1.75H45.21a10.29,10.29,0,0,0,8.63-4.28c1-1.29,1.7-1.45,3.07-.64q4.11,2.46,8.2,4.93c.35.21.83.46.92.79C66.35,29.72,67.23,29.7,68.11,29.76ZM78.79,76.64a9.23,9.23,0,0,0-6.9-7.54c-1.63-.42-3.3-.72-4.93-1.16a1.39,1.39,0,0,0-1.63.53c-2,2.33-4.08,4.62-6.13,6.93-1.25,1.41-2,1.48-3.43.34-.28-.22-.58-.43-.9-.67-.76,1-1.4,1.94-2.12,2.8a2.43,2.43,0,0,0-.58,2.06c.83,6.37,1.61,12.75,2.41,19.13.26,2.1.53,4.21.79,6.3H80.15m-32-25.19L45,105.33h6.72M55.5,61a48,48,0,0,1-7.19,1,45.92,45.92,0,0,1-7.13-1c-.13,1.66-.13,1.66,1.5,2.31s3.12,1.33,4.72,1.86a3.41,3.41,0,0,0,2,0c1.6-.54,3.14-1.23,4.71-1.86S55.77,62.59,55.5,61Zm-3.58,7,5.25,4.21L62,66.82c-1.13-.26-2.1-.52-3.09-.71A3.72,3.72,0,0,0,57.16,66C55.43,66.56,53.75,67.3,51.92,68Zm-7.19.06c-3.21-1.52-6.29-3.19-9.85-1.09l4.66,5.24Zm-.08,4.7a23.88,23.88,0,0,0,2.6,3.32,2.17,2.17,0,0,0,2.13.1,24.84,24.84,0,0,0,2.68-3.42c-1.13-.91-2.12-1.76-3.18-2.52a1.13,1.13,0,0,0-1,0C46.79,71,45.8,71.87,44.65,72.79ZM30.26,33.24a3.59,3.59,0,0,0-3.56,3.92,3.4,3.4,0,0,0,3.56,3.12Zm36.19,7.14A3.61,3.61,0,0,0,70,36.45a3.39,3.39,0,0,0-3.55-3.11Z" transform="translate(-10.65)"/></g><path class="cls-10" d="M38.92,38.62a5.73,5.73,0,0,1,5.67,0" transform="translate(-10.65)"/><path class="cls-10" d="M52.17,38.62a5.73,5.73,0,0,1,5.67,0" transform="translate(-10.65)"/><path class="cls-10" d="M54.68,51.46a11.93,11.93,0,0,1-11.82,0" transform="translate(-10.65)"/><circle cx="31.11" cy="40.63" r="1.35"/><circle cx="44.56" cy="40.63" r="1.35"/><path class="cls-11" d="M48.84,42l1.52,5.86s-1.67,1.44-3.15.77" transform="translate(-10.65)"/><rect x="59.26" y="85.64" width="3.62" height="19.72"/><polygon class="cls-12" points="68.51 33.62 62.4 33.62 63.71 28.42 67.19 28.42 68.51 33.62"/><rect class="cls-3" x="64.87" y="14.85" width="1.21" height="15.29"/><path class="cls-13" d="M78.55,28.42a2.43,2.43,0,1,0-2.42,2.48,2.42,2.42,0,0,0,2.42-2.48Z" transform="translate(-10.65)"/><path class="cls-14" d="M13.44,14.44l35-13.37,35,13.37L65.63,21.26V15.91c0-3.94-8.93-5.75-17.21-5.75S31.21,12,31.21,15.91v5.35Z" transform="translate(-10.65)"/><path class="cls-14" d="M44.38,29.47c1.26,0,2.63-.15,4-.15s2.83.1,4,.15c4.79.3,10.49,1.11,13.62,2.78V15.86c0-4-9.13-5.91-17.66-5.91s-17.61,1.87-17.61,5.91V32.25c3.12-1.67,8.78-2.48,13.57-2.78Z" transform="translate(-10.65)"/></g></g></svg>