<svg xmlns="http://www.w3.org/2000/svg" viewBox="0 0 130.16 120.08"><defs><style>.cls-1{opacity:0.06;}.cls-2{fill:#fff;}.cls-3{fill:#e0e0e0;}.cls-4{fill:#3a9e32;}.cls-5{fill:#2d4375;}.cls-6{fill:#dadfe3;}.cls-15,.cls-7{fill:#f0f5f9;}.cls-8{fill:#dfe4e8;}.cls-9{fill:#b8c0c9;}.cls-10{fill:#02629e;}.cls-11{fill:#0270ab;}.cls-12{fill:#d0dae4;}.cls-13{fill:#00579c;}.cls-14{fill:#004679;}.cls-15{opacity:0.1;}.cls-16{font-size:11.8px;fill:#ff4140;font-family:MyriadPro-Bold, Myriad Pro;font-weight:700;}.cls-17{letter-spacing:0.01em;}.cls-18{letter-spacing:-0.04em;}.cls-19{letter-spacing:-0.02em;}</style></defs><g id="Layer_2" data-name="Layer 2"><g id="Layer_1-2" data-name="Layer 1"><g class="cls-1"><path d="M25,0A11.32,11.32,0,0,0,13.72,11.31v92.75A11.32,11.32,0,0,0,25,115.38h32V0Z"/><path d="M89.07,0h-32V115.38h32a11.31,11.31,0,0,0,11.31-11.32V11.31A11.31,11.31,0,0,0,89.07,0Z"/></g><path class="cls-2" d="M13.82,105.52A11.31,11.31,0,0,0,25,115.38h64a11.31,11.31,0,0,0,11.21-9.86Z"/><path class="cls-3" d="M65.51,0H11.22A11.31,11.31,0,0,0,0,9.86H77.83A11.33,11.33,0,0,1,89.05,0Z"/><path class="cls-3" d="M48.09,115.38h54.3a11.31,11.31,0,0,0,11.21-9.86H35.77a11.31,11.31,0,0,1-11.22,9.86Z"/><path class="cls-4" d="M41.63,81.4a8.36,8.36,0,1,0,3,11.42A8.35,8.35,0,0,0,41.63,81.4Z"/><path class="cls-4" d="M27.38,81.61a12.25,12.25,0,0,1,22.09,4.67l1.65.35a13.82,13.82,0,0,0-25.38-5.36Z"/><path class="cls-4" d="M47.5,95.64A12.25,12.25,0,0,1,25.41,91l-1.65-.34A13.82,13.82,0,0,0,49.14,96Z"/><rect class="cls-4" x="34.09" y="71.28" width="6.7" height="34.69" transform="translate(-57.01 106.94) rotate(-78.07)"/><path class="cls-2" d="M24.69,83.69l1.12.24.45,4.58-1-.21-.1-.92-1.3-.28-.46.81-1-.21Zm.43,2.81L25,85.05l-.74,1.27Z"/><path class="cls-2" d="M27.51,84.29l1.88.39c.57.12,1.22.43,1,1.62-.29,1.35-1.05,1.29-1.55,1.15a7.35,7.35,0,0,1-.9-.31l-.34,1.65-1-.2Zm1.38,2.31c.25.06.41-.07.49-.49s-.05-.56-.25-.61l-.83-.17-.23,1.1Z"/><path class="cls-2" d="M31.1,85l1.88.4c.57.12,1.22.43,1,1.62-.29,1.35-1.05,1.29-1.55,1.15a6.53,6.53,0,0,1-.89-.31l-.35,1.65-1-.2Zm1.38,2.32c.25,0,.41-.07.5-.49s-.06-.57-.26-.61l-.83-.17-.23,1.1Z"/><path class="cls-2" d="M34.69,85.8l1.9.4c.71.16,1.17.58.95,1.63s-.65,1.1-.93,1.13L37,90.79,36,90.56l-.31-1.71-.54-.2-.35,1.66-1-.2Zm1.39,2.28c.29.06.4,0,.49-.46s0-.55-.27-.6l-.82-.17-.22,1.06Z"/><path class="cls-2" d="M39.91,86.88c1,.21,1.71.56,1.29,2.58s-1.15,2-2.21,1.77-1.71-.56-1.3-2.51S38.92,86.67,39.91,86.88Zm-.73,3.48c.61.12.83-.06,1-1.11s.1-1.37-.5-1.5-.81-.06-1.07,1.17C38.43,90,38.51,90.21,39.18,90.36Z"/><path class="cls-2" d="M42.82,87.52l.2,3.26,1.56-2.89,1,.22-2.27,4-1.14-.24-.38-4.57Z"/><path class="cls-2" d="M45.55,89.08a.9.9,0,0,1,1.21-.73s1.38.32,1.88.5l-.17.8-1.64-.34c-.3-.07-.34.1-.37.26l-.11.49,1.66.41-.17.8L46.16,91l-.1.49c-.07.31.13.35.3.38l1.58.34-.17.8c-.47,0-1.87-.3-1.87-.3A.9.9,0,0,1,45,91.55Z"/><path class="cls-2" d="M49.11,88.85l1.91.4c1.21.26,1.26,1.35,1,2.49-.29,1.37-.91,2-1.93,1.82l-1.91-.41ZM50.2,92.7c.45.1.7-.33.88-1.17.24-1.12.06-1.38-.32-1.46l-.86-.18-.56,2.63Z"/><rect class="cls-5" x="21.3" y="45.57" width="71.51" height="9.45"/><rect class="cls-5" x="21.3" y="29.15" width="71.51" height="9.45"/><rect class="cls-5" x="21.3" y="61.98" width="71.51" height="9.45"/><rect class="cls-6" x="79.95" y="26.88" width="10.68" height="93.04"/><rect class="cls-7" x="60.51" y="26.88" width="19.44" height="93.04"/><rect class="cls-8" x="60.51" y="24.6" width="19.44" height="2.28"/><rect class="cls-9" x="79.95" y="24.6" width="10.68" height="2.28"/><rect class="cls-10" x="66.8" y="36.41" width="6.86" height="10.65"/><rect class="cls-11" x="66.8" y="36.41" width="1.84" height="10.65"/><rect class="cls-9" x="66.8" y="47.06" width="6.86" height="1.65"/><rect class="cls-10" x="66.8" y="56.6" width="6.86" height="10.65"/><rect class="cls-11" x="66.8" y="56.6" width="1.84" height="10.65"/><rect class="cls-9" x="66.8" y="67.25" width="6.86" height="1.65"/><rect class="cls-10" x="66.8" y="76.78" width="6.86" height="10.65"/><rect class="cls-11" x="66.8" y="76.78" width="1.84" height="10.65"/><rect class="cls-9" x="66.8" y="87.43" width="6.86" height="1.65"/><rect class="cls-10" x="66.8" y="96.97" width="6.86" height="10.65"/><rect class="cls-11" x="66.8" y="96.97" width="1.84" height="10.65"/><rect class="cls-9" x="66.8" y="107.62" width="6.86" height="1.65"/><rect class="cls-12" x="60.51" y="117.61" width="19.44" height="2.3"/><rect class="cls-6" x="119.47" y="26.88" width="10.68" height="93.04"/><rect class="cls-7" x="100.03" y="26.88" width="19.44" height="93.04"/><rect class="cls-8" x="100.03" y="24.6" width="19.44" height="2.28"/><rect class="cls-9" x="119.47" y="24.6" width="10.68" height="2.28"/><rect class="cls-10" x="106.32" y="36.41" width="6.86" height="10.65"/><rect class="cls-11" x="106.32" y="36.41" width="1.84" height="10.65"/><rect class="cls-9" x="106.32" y="47.06" width="6.86" height="1.65"/><rect class="cls-10" x="106.32" y="56.6" width="6.86" height="10.65"/><rect class="cls-11" x="106.32" y="56.6" width="1.84" height="10.65"/><rect class="cls-9" x="106.32" y="67.25" width="6.86" height="1.65"/><rect class="cls-10" x="106.32" y="76.78" width="6.86" height="10.65"/><rect class="cls-11" x="106.32" y="76.78" width="1.84" height="10.65"/><rect class="cls-9" x="106.32" y="87.43" width="6.86" height="1.65"/><rect class="cls-10" x="106.32" y="96.97" width="6.86" height="10.65"/><rect class="cls-11" x="106.32" y="96.97" width="1.84" height="10.65"/><rect class="cls-9" x="106.32" y="107.62" width="6.86" height="1.65"/><rect class="cls-12" x="100.03" y="117.61" width="19.44" height="2.3"/><rect class="cls-9" x="119.47" y="117.61" width="10.68" height="2.3"/><rect class="cls-10" x="79.95" y="29.1" width="20.08" height="90.82"/><rect class="cls-11" x="79.95" y="29.1" width="5.34" height="90.98"/><rect class="cls-11" x="89.99" y="29.1" width="2.67" height="90.98"/><rect class="cls-13" x="79.95" y="26.88" width="20.08" height="2.22"/><rect class="cls-14" x="79.95" y="41.74" width="20.08" height="1.22"/><rect class="cls-14" x="79.95" y="63.18" width="20.08" height="1.22"/><rect class="cls-14" x="79.95" y="84.62" width="20.08" height="1.22"/><rect class="cls-14" x="79.95" y="106.06" width="20.08" height="1.22"/><polygon class="cls-15" points="100.03 80.04 79.94 100.16 79.94 92.66 100.03 72.54 100.03 80.04"/><polygon class="cls-15" points="100.03 62.11 79.94 82.23 79.94 29.1 100.03 29.1 100.03 62.11"/><text class="cls-16" transform="translate(24.53 21.42)"><tspan class="cls-17">L</tspan><tspan x="6.1" y="0">AP </tspan><tspan class="cls-18" x="23.08" y="0">L</tspan><tspan class="cls-19" x="28.66" y="0">O</tspan><tspan x="36.94" y="0">ANS</tspan></text></g></g></svg>