<svg xmlns="http://www.w3.org/2000/svg" viewBox="0 0 150.07 109.07"><defs><style>.cls-1{fill:#fff;}.cls-2{fill:#e8e8e8;}.cls-3{fill:#0069cc;}.cls-4{fill:#ff4140;}.cls-5{fill:#c8c8ca;}.cls-6{fill:#fde1d5;}.cls-7{fill:#5a5b5d;}.cls-8{fill:#4084c0;}.cls-9{fill:#59a1d7;}.cls-10{fill:#ecb9ae;}.cls-11{fill:#ec8585;}.cls-12{fill:#404143;}.cls-13{fill:#ecb8ae;}.cls-14{fill:#e7b644;}.cls-15{fill:#c33636;}.cls-16{fill:#b5b4b4;}.cls-17,.cls-18{fill:none;stroke:#000;stroke-miterlimit:10;}.cls-17{stroke-linecap:round;}</style></defs><g id="Layer_2" data-name="Layer 2"><g id="Layer_1-2" data-name="Layer 1"><rect class="cls-1" x="54.58" y="26.11" width="75.96" height="31.96" transform="translate(23.28 116.51) rotate(-71.5)"/><polygon class="cls-2" points="150.07 21.28 131.68 76.27 108.93 87.61 95.67 83.17 119.76 11.14 150.07 21.28"/><polygon class="cls-1" points="114.64 70.57 131.68 76.27 108.93 87.61 114.64 70.57"/><rect class="cls-3" x="92.14" y="18.68" width="4.59" height="15.35" transform="translate(39.49 107.55) rotate(-71.5)"/><rect class="cls-3" x="115.41" y="29.42" width="4.59" height="9.43" transform="translate(47.99 134.92) rotate(-71.5)"/><rect class="cls-3" x="105.3" y="26.6" width="4.59" height="8.3" transform="translate(44.3 123.03) rotate(-71.51)"/><rect class="cls-3" x="128.6" y="30.92" width="4.59" height="15.24" transform="translate(52.81 150.44) rotate(-71.5)"/><rect class="cls-3" x="84.27" y="31.77" width="4.59" height="5.66" transform="translate(26.29 105.72) rotate(-71.5)"/><rect class="cls-3" x="93.46" y="32.83" width="4.59" height="9.69" transform="translate(29.65 116.53) rotate(-71.5)"/><rect class="cls-3" x="105.96" y="35.76" width="4.59" height="12.2" transform="translate(34.21 131.24) rotate(-71.5)"/><rect class="cls-3" x="130.21" y="47.51" width="4.59" height="4.93" transform="translate(43.08 159.78) rotate(-71.51)"/><rect class="cls-3" x="120.42" y="39.84" width="4.59" height="13.71" transform="translate(39.5 148.25) rotate(-71.5)"/><rect class="cls-3" x="80.88" y="41.65" width="4.59" height="5.41" transform="translate(14.73 109.16) rotate(-71.51)"/><rect class="cls-3" x="92.33" y="41.08" width="4.59" height="14.21" transform="translate(18.91 122.63) rotate(-71.5)"/><rect class="cls-3" x="108.04" y="46.08" width="4.59" height="14.72" transform="translate(24.65 141.12) rotate(-71.5)"/><rect class="cls-3" x="122.46" y="51.08" width="4.59" height="14.36" transform="translate(29.92 158.09) rotate(-71.5)"/><rect class="cls-3" x="79.15" y="50.32" width="4.59" height="8.68" transform="translate(3.77 114.56) rotate(-71.5)"/><rect class="cls-3" x="94.37" y="49.81" width="4.59" height="19.88" transform="translate(9.33 132.46) rotate(-71.5)"/><rect class="cls-3" x="115.49" y="55.73" width="4.59" height="22.16" transform="translate(17.06 157.32) rotate(-71.5)"/><rect class="cls-3" x="78.1" y="58.51" width="4.59" height="13.36" transform="translate(-6.94 120.75) rotate(-71.5)"/><path class="cls-4" d="M100.8,10.07l4.37,1.46c2.76.93,2.59,3.5,1.72,6.09-1,3.14-2.68,4.53-5,3.75l-4.37-1.46Zm1.52,9.32c1,.34,1.72-.58,2.37-2.52.85-2.54.5-3.21-.36-3.5l-2-.66-2,6Z"/><path class="cls-4" d="M108.69,15.1a2.11,2.11,0,0,1,3-1.38s3.16,1.12,4.29,1.67l-.62,1.84L111.62,16c-.7-.24-.83.15-1,.51l-.37,1.12L114.06,19l-.61,1.82L109.6,19.7l-.37,1.11c-.24.72.21.85.59,1L113.44,23l-.61,1.82c-1.08-.2-4.29-1.18-4.29-1.18-.89-.26-2.39-1-1.74-2.89Z"/><path class="cls-4" d="M117.08,15.52l4.15,1.39c2.06.69,2.48,2.08,2,3.61-.29.87-1.07,1.8-2.08,1.61a2.17,2.17,0,0,1,.86,2.69c-.67,2-1.92,2.63-4,1.94l-4.2-1.4Zm1.45,9.31c.54.18,1,0,1.28-.85.21-.62.18-1.27-.5-1.5l-1.89-.63-.79,2.34Zm1.28-4.18A.87.87,0,0,0,121,20c.25-.77-.13-1.12-.53-1.25l-1.79-.6L118,20.05Z"/><path class="cls-4" d="M124.87,18.13l7.43,2.48-.67,2L129,21.73l-2.62,7.83-2.2-.74L126.78,21l-2.58-.86Z"/><path class="cls-4" d="M130.67,29.13a.31.31,0,0,1,.43-.23l1.35.45a.32.32,0,0,1,.19.44l-.46,1.37a.3.3,0,0,1-.41.21l-1.34-.45a.32.32,0,0,1-.22-.42Zm4.81-7.44-2.64,7.11-1.72-.58L133.33,21Z"/><polygon class="cls-1" points="28.23 10.37 27.97 12.85 25.51 12.45 25.25 14.93 22.79 14.52 22.53 17 20.07 16.6 19.81 19.08 15.25 16.4 37.06 44.02 39.11 44.35 39.37 41.87 41.83 42.28 42.09 39.8 44.55 40.2 44.81 37.72 47.27 38.12 47.53 35.64 48.06 35.72 28.76 10.45 28.23 10.37"/><polygon class="cls-2" points="39.11 2.05 38.85 4.53 36.39 4.13 36.13 6.61 33.67 6.21 33.41 8.69 30.95 8.29 30.69 10.77 28.76 10.45 48.06 35.72 49.99 36.04 50.26 33.56 52.72 33.96 52.98 31.48 55.44 31.88 55.7 29.4 58.16 29.8 58.42 27.32 60.23 27.62 40.92 2.35 39.11 2.05"/><rect class="cls-1" x="39.64" y="11.38" width="5.93" height="2.72" transform="translate(1.02 28.48) rotate(-37.38)"/><rect class="cls-1" x="42.89" y="15.63" width="5.93" height="2.72" transform="translate(-0.9 31.32) rotate(-37.38)"/><rect class="cls-5" x="23.81" y="20.99" width="12.43" height="2.72" transform="translate(-7.4 22.81) rotate(-37.37)"/><rect class="cls-1" x="34.48" y="15.8" width="4.68" height="2.72" transform="translate(-2.85 25.88) rotate(-37.38)"/><rect class="cls-1" x="37.73" y="20.05" width="4.68" height="2.72" transform="translate(-4.77 28.72) rotate(-37.38)"/><rect class="cls-5" x="27.06" y="25.24" width="12.43" height="2.72" transform="translate(-9.31 25.66) rotate(-37.38)"/><rect class="cls-1" x="40.98" y="24.3" width="4.68" height="2.72" transform="translate(-6.68 31.56) rotate(-37.38)"/><rect class="cls-5" x="30.31" y="29.49" width="12.43" height="2.72" transform="translate(-11.23 28.51) rotate(-37.38)"/><rect class="cls-1" x="46.13" y="19.88" width="5.93" height="2.72" transform="translate(-2.81 34.17) rotate(-37.38)"/><rect class="cls-5" x="44.13" y="25.49" width="12.09" height="4.47" transform="translate(-6.53 36.15) rotate(-37.38)"/><polygon class="cls-5" points="23.18 19.91 23.77 20.2 24.34 19.88 24.25 20.53 24.73 20.98 24.08 21.09 23.8 21.69 23.5 21.11 22.84 21.03 23.3 20.55 23.18 19.91"/><polygon class="cls-5" points="25.67 18.01 26.26 18.3 26.83 17.98 26.74 18.63 27.22 19.08 26.57 19.19 26.29 19.79 25.99 19.2 25.33 19.13 25.79 18.65 25.67 18.01"/><polygon class="cls-5" points="37.5 8.96 38.09 9.26 38.67 8.94 38.57 9.59 39.06 10.04 38.41 10.15 38.13 10.74 37.82 10.16 37.17 10.08 37.63 9.61 37.5 8.96"/><polygon class="cls-5" points="39.99 7.06 40.58 7.36 41.16 7.04 41.06 7.69 41.55 8.13 40.9 8.25 40.62 8.84 40.31 8.26 39.66 8.18 40.12 7.71 39.99 7.06"/><path class="cls-4" d="M27.12,15.62l1.28-1a1,1,0,0,1,1.51.15.73.73,0,0,1,.06,1,.81.81,0,0,1,1,.3,1,1,0,0,1-.23,1.62l-1.3,1Zm2.13.23a.32.32,0,0,0,0-.49.32.32,0,0,0-.49-.1l-.55.43.44.58Zm1,1.25c.17-.12.2-.3,0-.56s-.36-.32-.56-.16l-.59.45.55.72Z"/><path class="cls-4" d="M29.64,13.69l.68-.52,2.32,3-.68.52Z"/><path class="cls-4" d="M30.71,12.88l.68-.52,1.68,2.2c.17.22.3.12.42,0l1-.73.48.62-1.24.95a.72.72,0,0,1-1.13-.12Z"/><path class="cls-4" d="M32.92,11.19l.68-.52,1.69,2.2c.16.22.3.11.42,0l1-.73.47.62-1.24,1a.73.73,0,0,1-1.13-.12Z"/><polygon class="cls-2" points="28.63 35.55 55.81 97.63 29.69 109.07 0 44.64 28.63 35.55"/><polygon class="cls-2" points="54.75 24.12 75.5 71.5 67.25 92.62 55.81 97.63 28.63 35.55 54.75 24.12"/><polygon class="cls-1" points="60.81 77.94 75.5 71.5 67.25 92.62 60.81 77.94"/><polygon class="cls-3" points="26.43 56.16 11.38 59.3 13.02 63.05 28.07 59.91 26.43 56.16"/><rect class="cls-3" x="36.82" y="49.95" width="8.42" height="4.09" transform="translate(-17.41 20.82) rotate(-23.65)"/><rect class="cls-3" x="28.62" y="53.77" width="7.41" height="4.09" transform="translate(-19.67 17.65) rotate(-23.65)"/><rect class="cls-3" x="45.6" y="44.98" width="13.6" height="4.09" transform="translate(-14.46 24.96) rotate(-23.65)"/><polygon class="cls-3" points="22.21 68.06 15.07 67.74 19.22 73.83 23.85 71.81 22.21 68.06"/><rect class="cls-3" x="24.31" y="65.43" width="8.64" height="4.09" transform="translate(-24.66 17.15) rotate(-23.65)"/><rect class="cls-3" x="33.96" y="60.72" width="10.89" height="4.09" transform="translate(-21.87 21.08) rotate(-23.65)"/><rect class="cls-3" x="58.11" y="51.56" width="4.4" height="4.09" transform="translate(-16.44 28.69) rotate(-23.65)"/><rect class="cls-3" x="45.75" y="55.26" width="12.23" height="4.09" transform="translate(-18.63 25.62) rotate(-23.65)"/><rect class="cls-3" x="21.89" y="77.38" width="4.83" height="4.09" transform="translate(-29.82 16.42) rotate(-23.65)"/><rect class="cls-3" x="27.84" y="73.06" width="12.68" height="4.09" transform="translate(-27.26 20.02) rotate(-23.65)"/><rect class="cls-3" x="41.15" y="67.13" width="13.13" height="4.09" transform="translate(-23.74 24.95) rotate(-23.65)"/><rect class="cls-3" x="53.74" y="61.69" width="12.81" height="4.09" transform="translate(-20.52 29.48) rotate(-23.65)"/><rect class="cls-3" x="25.47" y="85.23" width="7.75" height="4.09" transform="translate(-32.55 19.1) rotate(-23.65)"/><rect class="cls-3" x="33.58" y="79.49" width="17.73" height="4.09" transform="translate(-29.14 23.87) rotate(-23.65)"/><rect class="cls-3" x="50.76" y="71.52" width="19.77" height="4.09" transform="translate(-24.42 30.51) rotate(-23.65)"/><rect class="cls-3" x="28.98" y="92.83" width="11.92" height="4.09" transform="translate(-35.13 21.99) rotate(-23.65)"/><path class="cls-4" d="M20.54,43.73l3.26-1.47A2.13,2.13,0,0,1,27,43.34a1.65,1.65,0,0,1-.35,2.11,1.77,1.77,0,0,1,2,1.14c.7,1.57.31,2.64-1.31,3.37L24,51.44ZM25,45.29a.7.7,0,0,0,.33-1c-.27-.61-.69-.6-1-.46l-1.41.63.67,1.48Zm1.54,3.21c.42-.19.59-.55.29-1.21-.21-.49-.59-.86-1.12-.63l-1.49.67.83,1.84Z"/><path class="cls-4" d="M26.94,40.85l1.72-.78,3.47,7.72-1.72.77Z"/><path class="cls-4" d="M29.64,39.63l1.73-.77,2.52,5.59c.25.56.59.39.9.26l2.43-1.1.71,1.57-3.15,1.41a1.59,1.59,0,0,1-2.37-.81Z"/><path class="cls-4" d="M35.26,37.11,37,36.33l2.51,5.6c.25.55.6.39.9.25l2.44-1.09.7,1.57L40.4,44.07A1.6,1.6,0,0,1,38,43.26Z"/><path class="cls-6" d="M91.13,37.91A18,18,0,0,1,90,46a16,16,0,0,1-6,7.32c-.29.17-.58.35-.88.51a13.25,13.25,0,0,1-6.58,2,12.73,12.73,0,0,1-6.4-2.2,15.62,15.62,0,0,1-7.78-13.39c-.16-5,0-9.91,0-14.87l1.34-.06c2.9,0,5.79.08,8.68,0a11.71,11.71,0,0,0,7.35-2.73c1-.78,1.87-1.6,2.88-2.46,2.17,1.3,4.57,2.84,7.07,4.2,1.21.66,1.84,1.42,1.59,2.8C91.14,30.67,91.14,34.29,91.13,37.91Z"/><path class="cls-7" d="M91.15,27.05c.25-1.38-.38-2.14-1.59-2.8-2.5-1.36-4.9-2.9-7.07-4.2-1,.86-1.93,1.68-2.88,2.46a11.71,11.71,0,0,1-7.35,2.73c-2.89.08-5.78,0-8.68,0a7.29,7.29,0,0,0-.84-1.14,17.09,17.09,0,0,1-4.55-6.46c-1.62-4.17-2-8.33,0-12.5.09-.18,0-.45,0-.67A10.71,10.71,0,0,1,65.23,1.8c5.45-.06,10.91.12,16.36-.07a7.47,7.47,0,0,1,7.8,7.21,7.27,7.27,0,0,1,5.18,2.27,6.85,6.85,0,0,1,2,4.87c0,4.1,0,8.2,0,12.3C95,27,93.06,27,91.15,27.05Z"/><path class="cls-8" d="M69.48,102.94H55V81.38H51.42v21.56H47.78c.07-.86.18-1.71.22-2.57.17-3.14.31-6.28.47-9.42.06-1.27.14-2.54.23-3.8.29-4.22.7-8.42.85-12.64a12.05,12.05,0,0,1,2.32-7.24A10.15,10.15,0,0,1,59.08,63c.41.38.84.75,1.21,1.16,1.64,1.84,3.27,3.68,4.89,5.54.48.56.87.66,1.49.11a16,16,0,0,1,2.11-1.39c1.44,1.88,2.87,3.77,4.3,5.65-.38,3.13-.76,6.25-1.16,9.38s-.86,6.53-1.27,9.81S69.87,99.7,69.48,102.94Z"/><path class="cls-8" d="M94.76,102.94H80.27q-.8-6.64-1.61-13.28c-.65-5.21-1.32-10.41-2-15.62L81,68.39a23.54,23.54,0,0,1,2.21,1.47.79.79,0,0,0,1.31-.11c.77-.87,1.57-1.7,2.33-2.58,1.67-1.91,3.32-3.84,5-5.76,2.62.61,5.28,1.06,7.84,1.84a11.19,11.19,0,0,1,7.77,11l-5.4-.21V70.47H91.2V95.76h3.53Z"/><path class="cls-9" d="M59.08,63a10.19,10.19,0,0,0-7.21,4.31,12.05,12.05,0,0,0-2.32,7.24c-.15,4.22-.56,8.42-.85,12.64-.09,1.26-.17,2.53-.23,3.8-.16,3.14-.3,6.28-.47,9.42,0,.86-.15,1.71-.22,2.57H40.59c.08-1.82.13-3.53.24-5.24s.3-3.12.39-4.69c.25-4.34.45-8.68.72-13a72.07,72.07,0,0,1,.68-7.93c.82-4.79,3.82-7.77,8.46-9,2.27-.63,4.59-1.06,6.89-1.59Z"/><path class="cls-10" d="M62.24,25.3c0,5-.13,9.92,0,14.87a15.62,15.62,0,0,0,7.78,13.39,12.73,12.73,0,0,0,6.4,2.2,13.25,13.25,0,0,0,6.58-2c.3-.16.59-.34.88-.51,0,.67,0,1.33,0,2a3.3,3.3,0,0,0-.73.25,15.29,15.29,0,0,1-8.47,2.24c-1.7-.06-3.39-.43-5.16-.67a4.9,4.9,0,0,1-.06.9c-.27,1.29.39,1.85,1.53,2.26,1.86.68,3.66,1.5,5.49,2.27l-1.36.69,0,.14a.46.46,0,0,1-.2,0,3.3,3.3,0,0,0-.57-.34l-8.48-3.4c0-1.81,0-3.62,0-5.42a2,2,0,0,0-.59-1.33A16.29,16.29,0,0,1,58.62,39c0-.3,0-.59-.07-1-.48,0-.92,0-1.35,0a5.31,5.31,0,0,1-5.28-3.17,5,5,0,0,1,1.13-6.1c.07-.08.12-.18.19-.28,1.55-1.27,3.4-1.39,5.32-1.31l.13-1.76Z"/><path class="cls-11" d="M76.68,74c.66,5.21,1.33,10.41,2,15.62q.82,6.63,1.61,13.28H69.48c.39-3.24.76-6.48,1.17-9.71s.86-6.54,1.27-9.81.78-6.25,1.16-9.38Z"/><path class="cls-12" d="M62.24,25.3H58.69l-.13,1.76c-1.92-.08-3.77,0-5.32,1.31,0-4.92-.14-9.85,0-14.77a11.62,11.62,0,0,1,4.87-9.13c0,.22.11.49,0,.67-2,4.17-1.59,8.33,0,12.5a17.09,17.09,0,0,0,4.55,6.46,7.29,7.29,0,0,1,.84,1.14Z"/><path class="cls-9" d="M102,92.12a16.33,16.33,0,0,1,6.72,1.3c.16,2.79.3,5.59.47,8.38,0,.83-.13,1.2-1.08,1.18-3.26-.07-6.52,0-9.78,0l0-7.18H102Z"/><path class="cls-9" d="M65.83,59.58,74.31,63a3.3,3.3,0,0,1,.57.34L68.93,68c-.1.08-.1.27-.15.41a16,16,0,0,0-2.11,1.39c-.62.55-1,.45-1.49-.11-1.62-1.86-3.25-3.7-4.89-5.54-.37-.41-.8-.78-1.21-1.16L58,61.43Z"/><path class="cls-9" d="M75.11,63.21l1.36-.69,7.45-2.94,7.87,1.83c-1.65,1.92-3.3,3.85-5,5.76-.76.88-1.56,1.71-2.33,2.58a.79.79,0,0,1-1.31.11A23.54,23.54,0,0,0,81,68.39a6,6,0,0,0-.74-.9c-1.63-1.35-3.27-2.68-4.91-4Z"/><path class="cls-13" d="M91.15,27.05c1.91,0,3.8,0,5.37,1.33C98,30,98.81,31.79,98.12,34a5.4,5.4,0,0,1-5.3,3.9c-.56,0-1.12,0-1.69,0Z"/><path class="cls-6" d="M83.92,59.58l-7.45,2.94c-1.83-.77-3.63-1.59-5.49-2.27-1.14-.41-1.8-1-1.53-2.26a4.9,4.9,0,0,0,.06-.9c1.77.24,3.46.61,5.16.67a15.29,15.29,0,0,0,8.47-2.24,3.3,3.3,0,0,1,.73-.25C83.88,56.7,83.9,58.14,83.92,59.58Z"/><path class="cls-14" d="M113.93,44.58l-.32.33Z"/><path class="cls-14" d="M136.52,67.83l.33-.33Z"/><path class="cls-15" d="M75.32,63.47c1.64,1.34,3.28,2.67,4.91,4a6,6,0,0,1,.74.9L76.68,74h-3.6c-1.43-1.88-2.86-3.77-4.3-5.65,0-.14,0-.33.15-.41l5.95-4.66a.46.46,0,0,0,.2,0Z"/><path class="cls-16" d="M75.32,63.47l-.24-.12,0-.14Z"/><path class="cls-8" d="M95.68,103.38c1.26,0,2.39-2,3.57-2v1.56h3.64c-.08-.86-.18-1.71-.23-2.57-.16-3.14-.3-6.28-.46-9.42-.07-1.27-.15-2.54-.23-3.8-.3-4.22-.7-8.42-.86-12.64a12,12,0,0,0-2.31-7.24A10.15,10.15,0,0,0,91.58,63c-.4.38-.83.75-1.2,1.16-1.65,1.84-3.28,3.68-4.9,5.54-.48.56-.86.66-1.48.11a16.83,16.83,0,0,0-2.12-1.39L77.59,74c.38,3.13.75,6.25,1.15,9.38S79.61,90,80,93.23s.78,6.47,1.16,9.71h14.5"/><path class="cls-9" d="M91.58,63a10.19,10.19,0,0,1,7.22,4.31,12,12,0,0,1,2.31,7.24c.16,4.22.56,8.42.86,12.64.08,1.26.16,2.53.23,3.8.16,3.14.3,6.28.46,9.42,0,.86.15,1.71.23,2.57h7.19c-.08-1.82-.13-3.53-.24-5.24s-.3-3.12-.39-4.69c-.26-4.34-.45-8.68-.72-13a74.6,74.6,0,0,0-.68-7.93c-.83-4.79-3.82-7.77-8.47-9C97.32,62.39,95,62,92.7,61.43Z"/><path d="M110.67,95.9c.1,1.75.2,3.37.3,5,0,.6.11,1.2.11,1.8a1.81,1.81,0,0,1-1.91,2H41.47c-2.11,0-2.69-.61-2.56-2.71.6-9.68,1.18-19.36,1.81-29A13.07,13.07,0,0,1,51,61.18c4.34-1,8.69-2,13.12-3,0-1.26,0-2.46,0-3.65a.94.94,0,0,0-.35-.64A18.18,18.18,0,0,1,56.9,40a22.28,22.28,0,0,1-3.51-1.23A7.12,7.12,0,0,1,51,28.42a3,3,0,0,0,.5-1.64c0-4.06,0-8.12,0-12.18A14.45,14.45,0,0,1,66.13,0c5.26,0,10.53,0,15.79,0a9.06,9.06,0,0,1,9,6.64,1.61,1.61,0,0,0,.92.89,9.07,9.07,0,0,1,6.59,9c0,3.46,0,6.92,0,10.38a2.18,2.18,0,0,0,.29,1.26,7.24,7.24,0,0,1-5.57,11.63c-.23,1.44-.35,2.9-.7,4.31a17.34,17.34,0,0,1-5.79,9.32,2.17,2.17,0,0,0-.9,2c.07.89,0,1.79,0,2.76,4.12.94,8.17,1.9,12.23,2.8,6.09,1.35,9.89,4.92,11.06,11.15M68.47,70.78c-.26.19-.45.31-.62.45-1.88,1.44-2.36,1.39-3.93-.38-2-2.25-4-4.49-6-6.75a1.22,1.22,0,0,0-1.44-.49c-1.62.45-3.29.76-4.93,1.17a9.57,9.57,0,0,0-7.29,9c-.36,6.76-.83,13.51-1.25,20.26-.14,2.31-.27,4.62-.4,7h8.9V81.34h3.63v19.72H68c.2-1.58.4-3.1.59-4.63q1.32-10.56,2.61-21.14a1.91,1.91,0,0,0-.27-1.24C70.17,73,69.35,71.94,68.47,70.78ZM60.54,27.09c0,2.25,0,4.35,0,6.44a73.67,73.67,0,0,0,.25,8.55c.88,6.85,7.14,12.08,14.15,12.09S88.46,49,89.14,42c.5-5.07.22-10.21.27-15.31a.89.89,0,0,0-.36-.62c-2.1-1.29-4.22-2.55-6.39-3.85-3.5,4-8,5.09-13,4.87C66.7,27,63.69,27.09,60.54,27.09Zm34.2-1.63c0-.08.09-.14.09-.21,0-2.89,0-5.79,0-8.68a5.42,5.42,0,0,0-5.28-5.73,1.84,1.84,0,0,1-1.94-1.9,5.41,5.41,0,0,0-5.79-5.32q-7.72,0-15.45,0a10.83,10.83,0,0,0-11.25,11.2q0,4.86,0,9.7c0,.32,0,.63.07,1l1.63-.27c.6-1.52.94-1.75,2.6-1.75H71.84a10.29,10.29,0,0,0,8.63-4.29c1-1.29,1.7-1.44,3.07-.63l8.2,4.93c.35.21.83.46.92.78C93,25.42,93.86,25.4,94.74,25.46Zm10.68,46.88a9.23,9.23,0,0,0-6.9-7.54c-1.63-.42-3.3-.72-4.93-1.17a1.41,1.41,0,0,0-1.63.54c-2,2.33-4.08,4.62-6.13,6.93-1.25,1.41-2,1.48-3.43.34-.29-.23-.58-.43-.9-.67-.76,1-1.4,1.94-2.12,2.8a2.43,2.43,0,0,0-.58,2.06c.83,6.37,1.61,12.75,2.41,19.12.26,2.11.53,4.22.79,6.31h24.78M75.19,75.86h-.42L71.63,101h6.72C77.29,92.57,76.24,84.22,75.19,75.86Zm6.94-19.17a48,48,0,0,1-7.19,1,47.15,47.15,0,0,1-7.13-1c-.13,1.65-.13,1.65,1.5,2.31S72.43,60.3,74,60.83a3.41,3.41,0,0,0,2,0c1.59-.54,3.14-1.23,4.71-1.86S82.4,58.29,82.13,56.69Zm-3.58,7,5.25,4.21,4.81-5.42c-1.13-.26-2.1-.52-3.09-.71a3.75,3.75,0,0,0-1.74-.14C82.05,62.26,80.38,63,78.55,63.73Zm-7.19.06c-3.21-1.52-6.29-3.19-9.85-1.09l4.66,5.24Zm-.08,4.7a24.61,24.61,0,0,0,2.59,3.32,2.19,2.19,0,0,0,2.14.1,24.35,24.35,0,0,0,2.68-3.43c-1.13-.9-2.12-1.75-3.18-2.52a1.17,1.17,0,0,0-1,0C73.42,66.71,72.43,67.56,71.28,68.49ZM56.89,28.94a3.59,3.59,0,0,0-3.56,3.92A3.4,3.4,0,0,0,56.89,36Zm36.19,7.14a3.61,3.61,0,0,0,3.55-3.93A3.39,3.39,0,0,0,93.08,29Z"/><path class="cls-17" d="M65.55,34.31a5.73,5.73,0,0,1,5.67,0"/><path class="cls-17" d="M78.8,34.31a5.73,5.73,0,0,1,5.67,0"/><path class="cls-17" d="M81.31,47.16a11.93,11.93,0,0,1-11.82,0"/><circle cx="68.39" cy="36.33" r="1.35"/><circle cx="81.84" cy="36.33" r="1.35"/><path class="cls-18" d="M75.47,37.65,77,43.51s-1.68,1.44-3.15.77"/><rect x="96.53" y="81.34" width="3.62" height="19.72"/></g></g></svg>