<svg xmlns="http://www.w3.org/2000/svg" viewBox="0 0 512.1 512.1" fill="#050505" stroke="#000" stroke-width="12" stroke-miterlimit="10" xmlns:v="https://vecta.io/nano"><path d="M485.3 387.4l-97.9-65.3c-12.5-8.2-29.1-5.5-38.3 6.2L320.6 365c-3.7 4.8-10.3 6.2-15.6 3.3l-5.4-3c-18-9.8-40.4-22-85.6-67.1s-57.4-67.5-67.1-85.6l-2.9-5.4c-3-5.3-1.6-12 3.2-15.7l36.7-28.5c11.7-9.2 14.5-25.9 6.2-38.3l-65.5-97.9c-8.4-12.7-25.2-16.5-38.3-8.7L45.4 42.6C32.5 50.2 23.1 62.5 19 76.9c-14.7 53.8-3.7 146.5 133 283.2C260.7 468.8 341.7 498 397.3 498c12.8.1 25.5-1.6 37.9-4.9 14.4-4.1 26.7-13.5 34.2-26.4l24.7-40.9c7.8-13.1 3.9-29.9-8.8-38.4zm-5.2 30.2l-24.6 40.9c-5.4 9.3-14.3 16.2-24.6 19.1-49.6 13.6-136.3 2.4-267.5-128.9S20.9 130.8 34.5 81.2c2.9-10.4 9.8-19.2 19.1-24.7L94.5 32c5.7-3.4 13-1.8 16.6 3.8l65.3 98c3.6 5.4 2.4 12.7-2.7 16.6L137 179c-11.2 8.5-14.4 24-7.5 36.2l2.9 5.3c10.3 18.9 23.2 42.4 70 89.2s70.3 59.7 89.2 70l5.3 2.9c12.3 6.9 27.7 3.7 36.2-7.5l28.5-36.7c4-5.1 11.2-6.2 16.6-2.7l97.9 65.3c5.7 3.5 7.4 10.9 4 16.6zM288.3 94.7c75.7.1 137.1 61.4 137.2 137.2 0 4.4 3.6 8 8 8s8-3.6 8-8c-.1-84.6-68.6-153.1-153.2-153.2-4.4 0-8 3.6-8 8s3.5 8 8 8zm0 48.4c49 .1 88.7 39.8 88.8 88.8 0 4.4 3.6 8 8 8s8-3.6 8-8c-.1-57.9-47-104.8-104.8-104.8-4.4 0-8 3.6-8 8-.1 4.4 3.5 8 8 8zm0 48.4c22.3 0 40.3 18.1 40.4 40.4 0 4.4 3.6 8 8 8s8-3.6 8-8c0-31.2-25.3-56.4-56.4-56.4-4.4 0-8 3.6-8 8s3.5 8 8 8z"/></svg>